<svg width="137" height="28" viewBox="0 0 137 28" fill="none" xmlns="http://www.w3.org/2000/svg">
<path d="M18.1824 2.84629C18.1824 2.66117 18.1364 2.93885 18.0675 3.70249C17.9755 4.67439 17.9066 5.90084 17.8376 7.40497C17.7686 9.11737 17.7227 11.038 17.7227 13.2132C17.7227 16.8 17.8146 19.3686 18.0215 20.8727C18.0445 21.0347 18.0445 21.1504 18.0445 21.1967C18.0445 21.2893 17.9755 21.3587 17.8606 21.3587C17.5388 21.405 16.4124 21.4281 14.4356 21.4281C13.9758 21.4281 13.7 21.3355 13.631 21.1504C13.6081 20.8265 13.5851 20.4793 13.5851 20.1554C13.5851 20.086 13.5391 20.0165 13.4701 19.9471C13.4242 19.9703 13.3552 20.0165 13.2863 20.1091C12.3438 21.0347 11.1945 21.4975 9.79229 21.4975C7.97635 21.4975 6.50521 20.8496 5.42484 19.5769C4.39045 18.3504 3.86176 16.8 3.86176 14.9256C3.86176 13.0281 4.36746 11.4777 5.40186 10.2512C6.48222 8.95538 7.95337 8.28431 9.81528 8.28431C11.1255 8.28431 12.1369 8.70084 12.8495 9.5339C12.9644 9.67274 13.0564 9.74216 13.1024 9.74216C13.1713 9.74216 13.2173 9.62646 13.2173 9.39505C13.2173 8.72398 13.1943 7.72894 13.1713 6.38679C13.1253 5.06778 13.1253 4.07274 13.1253 3.40166C13.1253 3.14712 13.1943 3.00828 13.3322 2.96199C13.8839 2.93885 14.6425 2.89257 15.6079 2.80001C17.3319 2.59175 18.0904 2.47604 17.9066 2.47604C18.0904 2.52232 18.1824 2.63803 18.1824 2.84629ZM13.2863 14.8331C13.2863 14.1389 13.0564 13.5372 12.5737 13.0281C12.0909 12.519 11.5163 12.2413 10.8497 12.2413C10.1371 12.2413 9.58541 12.4959 9.14867 13.0281C8.73491 13.5372 8.52803 14.162 8.52803 14.8793C8.52803 15.5736 8.73491 16.1752 9.17165 16.6612C9.6084 17.1934 10.1601 17.4479 10.8497 17.4479C11.5393 17.4479 12.1139 17.1934 12.5737 16.6612C13.0564 16.1521 13.2863 15.5273 13.2863 14.8331Z" fill="#2D00F7"/>
<path d="M33.1007 14.8331C33.1007 15.5041 33.1467 16.4992 33.2156 17.8182C33.2846 19.1372 33.3306 20.1322 33.3306 20.7802C33.3306 21.1273 33.1697 21.3124 32.8708 21.3355C31.7905 21.405 30.5722 21.4512 29.193 21.4512C29.0321 21.4512 28.9172 21.1967 28.8712 20.7107C28.8252 20.2017 28.7563 19.9471 28.6643 19.9471C28.5953 19.9934 28.5034 20.0628 28.3885 20.1785C27.423 21.1504 26.3886 21.6595 25.2853 21.6595C23.6073 21.6595 22.2051 20.9884 21.1017 19.6463C20.0673 18.3967 19.5386 16.8926 19.5386 15.157C19.5386 13.1438 20.0673 11.524 21.1477 10.2975C22.274 9.02479 23.8141 8.39999 25.768 8.39999C27.1242 8.39999 28.2046 8.88594 28.9861 9.83471C29.0091 9.88099 29.0551 9.90413 29.0781 9.90413C29.147 9.90413 29.239 9.69586 29.3539 9.27933C29.4458 8.8628 29.5608 8.65454 29.6987 8.65454C30.0205 8.65454 30.6182 8.7471 31.5146 8.93223C32.3651 9.11735 32.9858 9.25619 33.3536 9.3719C33.4915 9.41818 33.5375 9.4876 33.5375 9.58016C33.5375 9.62644 33.5145 9.69586 33.4915 9.85785C33.2386 11.4083 33.1007 13.0744 33.1007 14.8331ZM28.9401 14.9025C28.9401 14.162 28.7103 13.5603 28.2505 13.0744C27.7908 12.5884 27.1932 12.357 26.4346 12.357C25.699 12.357 25.1014 12.5884 24.6417 13.0744C24.1819 13.5603 23.9521 14.162 23.9521 14.9025C23.9521 15.5967 24.2049 16.2215 24.6876 16.7074C25.1703 17.2165 25.768 17.4711 26.4576 17.4711C27.1932 17.4711 27.7908 17.2397 28.2505 16.7537C28.7103 16.2678 28.9401 15.6661 28.9401 14.9025Z" fill="#2D00F7"/>
<path d="M48.4097 12.0562C48.4097 13.7455 48.3638 14.7637 48.2488 15.1339C48.1109 15.5736 47.1685 17.1471 45.4215 19.8546C45.1456 20.2711 44.433 21.2661 43.2837 22.8166C42.0195 24.529 41.2839 25.4083 41.123 25.524C40.9161 25.6628 39.5829 25.7091 37.1463 25.7091C36.7785 25.7091 36.5257 25.6628 36.3877 25.5703C36.2728 25.2232 36.1349 24.7835 35.951 24.2975C35.8131 23.9967 35.6752 23.6959 35.5372 23.3719C35.3304 22.9091 35.2384 22.6314 35.2384 22.4694C35.2384 22.3075 35.3074 22.2149 35.4683 22.2149C37.8589 22.2149 39.0772 21.6595 39.0772 20.5488C39.0772 20.4562 38.4795 19.6 37.3072 17.9571C36.0889 16.2909 35.4223 15.2265 35.3074 14.7868C35.2384 14.5323 35.1924 13.6298 35.1924 12.0794C35.1924 11.7554 35.1924 11.2926 35.2154 10.6678C35.2384 10.043 35.2384 9.55705 35.2384 9.25623C35.2384 9.02482 35.3763 8.90912 35.6752 8.90912C36.1119 8.90912 36.7785 8.93226 37.675 8.9554C38.5715 8.97854 39.2381 9.00168 39.6748 9.00168C39.8587 9.00168 39.9507 9.14052 39.9507 9.39507C39.9507 9.64961 39.9277 9.99672 39.9047 10.5058C39.8817 10.9918 39.8587 11.362 39.8587 11.6166C39.8587 12.7042 39.8817 13.4447 39.9047 13.838C39.9277 14.1389 40.1805 14.7174 40.6862 15.5273C41.2149 16.3835 41.5827 16.8232 41.8126 16.8232C42.0195 16.8232 42.3413 16.4066 42.824 15.5504C43.2607 14.7405 43.4906 14.2083 43.5366 13.9306C43.6285 13.167 43.6745 12.3339 43.6745 11.4314C43.6745 11.2 43.6515 10.8298 43.6055 10.367C43.5596 9.88102 43.5366 9.53391 43.5366 9.27937C43.5366 9.11738 43.6285 9.02482 43.8124 9.02482C44.2492 9.02482 44.9158 9.00168 45.7893 8.97854C46.6627 8.9554 47.3294 8.93226 47.7661 8.93226C47.996 8.93226 48.1339 9.04796 48.2258 9.27937C48.3408 9.67275 48.4097 10.5984 48.4097 12.0562Z" fill="#2D00F7"/>
<path d="M58.6158 17.5405C58.6158 17.7951 58.5928 18.1885 58.5238 18.7207C58.4549 19.2529 58.4319 19.6463 58.4319 19.8777C58.4319 20.1091 58.4089 20.2942 58.3629 20.3637C58.317 20.4331 58.179 20.5256 57.9262 20.6645C56.8228 21.2893 55.5816 21.5901 54.2254 21.5901C51.7198 21.5901 50.4785 20.6413 50.4785 18.6975C50.4785 18.119 50.5015 17.2628 50.5475 16.1058C50.5935 14.9488 50.6165 13.9769 50.6165 13.3984C50.6165 13.005 50.3866 12.7042 49.9499 12.7042C49.9039 12.7042 49.8579 12.7042 49.7889 12.7042C49.72 12.7042 49.651 12.8199 49.628 12.8199C49.3062 12.8199 49.1453 12.7504 49.1453 12.519C49.1453 12.3802 49.1453 12.1951 49.1683 11.9174C49.1913 11.6397 49.1913 11.4314 49.1913 11.2926C49.1913 11.1075 49.1913 10.8298 49.1683 10.4595C49.1453 10.0893 49.1453 9.81159 49.1453 9.62647C49.1453 9.44135 49.4212 9.34879 49.9728 9.34879C50.2947 9.34879 50.4556 9.25622 50.4785 9.09424C50.5245 8.77027 50.5475 8.23804 50.5245 7.52069C50.4785 6.40994 50.4785 5.85457 50.4785 5.92399C50.4785 4.90581 50.5705 4.41986 50.7544 4.41986C50.9843 4.41986 51.329 4.46614 51.7428 4.58184C52.2255 4.69755 52.5703 4.76697 52.7772 4.76697C53.2139 4.83639 53.8806 4.90581 54.777 5.02151C54.9839 5.04465 55.0988 5.11408 55.0988 5.25292C55.0988 5.60003 55.0759 6.13226 55.0069 6.82647C54.9609 7.52069 54.915 8.05292 54.915 8.42317C54.915 8.83969 55.0299 9.0711 55.2827 9.0711C55.5816 9.0711 56.0413 9.04796 56.6619 9.02482C57.2826 9.00168 57.7423 8.97854 58.0411 8.97854C58.225 8.97854 58.317 9.04796 58.317 9.16366C58.317 9.37193 58.294 9.67275 58.248 10.0661C58.202 10.4595 58.179 10.7604 58.179 10.9686C58.179 11.1769 58.179 11.4777 58.202 11.8711C58.202 12.2645 58.225 12.5653 58.225 12.7736C58.225 12.9587 58.1101 13.0513 57.8572 13.0513C57.6733 13.0513 57.3975 12.8893 56.9837 12.8661C56.57 12.843 56.2941 12.681 56.1103 12.681H55.1448C55.0069 12.681 54.7081 13.1901 54.7081 13.5835C54.7081 13.7918 54.7081 14.0926 54.7081 14.5091C54.7081 14.9256 54.846 15.2265 54.846 15.4347C54.846 16.1752 54.9839 16.6612 55.1448 16.9389C55.3747 17.3091 55.8574 17.4942 56.547 17.4942C56.7539 17.4942 57.0757 17.448 57.4895 17.3554C57.8802 17.2628 58.179 17.2166 58.34 17.2166C58.5238 17.2397 58.6158 17.3323 58.6158 17.5405Z" fill="#FF0054"/>
<path d="M68.569 13.2364C68.569 13.5835 68.3851 13.7455 68.0173 13.7455C67.8564 13.7455 67.6035 13.7455 67.3047 13.7223C66.9829 13.6992 66.753 13.6992 66.5921 13.6992C65.8796 13.6992 65.3968 13.8149 65.121 14.0463C64.8681 14.2777 64.7302 14.7174 64.7302 15.4116C64.7302 15.7818 64.7302 16.3604 64.7532 17.124C64.7762 17.8876 64.7762 18.443 64.7762 18.8364C64.7762 19.0909 64.7992 19.4612 64.8222 19.9703C64.8452 20.4794 64.8681 20.8496 64.8681 21.081C64.8681 21.2893 64.7302 21.405 64.4314 21.4281C64.0176 21.4513 63.374 21.4744 62.5235 21.4744C61.696 21.4744 61.0524 21.4513 60.5467 21.405C60.2708 21.3818 60.1099 21.2199 60.1099 20.9653C60.1099 20.2711 60.1099 19.2298 60.1329 17.8414C60.1329 16.4529 60.1559 15.4116 60.1559 14.7174C60.1559 12.681 59.972 10.9918 59.6042 9.67276C59.5812 9.60333 59.5812 9.53391 59.5812 9.48763C59.5812 9.34879 59.6502 9.27937 59.7651 9.23309C60.2478 9.18681 60.9374 9.09424 61.8569 8.9554C63.2131 8.67771 63.9257 8.56201 63.9717 8.56201C64.1326 8.56201 64.2245 8.8397 64.2705 9.37193C64.3165 9.9273 64.3854 10.1818 64.5004 10.1818C64.3854 10.1818 64.7302 9.95044 65.5577 9.48763C66.3853 9.02482 67.1898 8.79342 67.9483 8.79342C68.4311 8.79342 68.6839 8.90912 68.6839 9.11738C68.6839 9.37193 68.6609 9.71904 68.615 10.1818C68.569 10.6678 68.523 11.038 68.523 11.2463C68.523 11.5009 68.523 11.8248 68.546 12.2414C68.569 12.7273 68.569 13.0744 68.569 13.2364Z" fill="#FF0054"/>
<path d="M83.0965 14.8331C83.0965 15.5041 83.1425 16.4992 83.2114 17.8182C83.2804 19.1372 83.3264 20.1322 83.3264 20.7802C83.3264 21.1273 83.1655 21.3124 82.8666 21.3355C81.7863 21.405 80.568 21.4512 79.1888 21.4512C79.0279 21.4512 78.9129 21.1967 78.867 20.7107C78.821 20.2017 78.752 19.9471 78.6601 19.9471C78.5911 19.9934 78.4992 20.0628 78.3843 20.1785C77.4188 21.1504 76.3844 21.6595 75.2811 21.6595C73.603 21.6595 72.2009 20.9884 71.0975 19.6463C70.0631 18.3967 69.5344 16.8926 69.5344 15.157C69.5344 13.1438 70.0631 11.524 71.1435 10.2975C72.2698 9.02479 73.8099 8.39999 75.7638 8.39999C77.12 8.39999 78.2004 8.88594 78.9819 9.83471C79.0049 9.88099 79.0509 9.90413 79.0739 9.90413C79.1428 9.90413 79.2348 9.69586 79.3497 9.27933C79.4416 8.8628 79.5566 8.65454 79.6945 8.65454C80.0163 8.65454 80.614 8.7471 81.5104 8.93223C82.3609 9.11735 82.9816 9.25619 83.3494 9.3719C83.4873 9.41818 83.5332 9.4876 83.5332 9.58016C83.5332 9.62644 83.5103 9.69586 83.4873 9.85785C83.2344 11.4083 83.0965 13.0744 83.0965 14.8331ZM78.9359 14.9025C78.9359 14.162 78.7061 13.5603 78.2463 13.0744C77.7866 12.5884 77.189 12.357 76.4304 12.357C75.6948 12.357 75.0972 12.5884 74.6374 13.0744C74.1777 13.5603 73.9478 14.162 73.9478 14.9025C73.9478 15.5967 74.2007 16.2215 74.6834 16.7074C75.1661 17.2165 75.7638 17.4711 76.4534 17.4711C77.189 17.4711 77.7866 17.2397 78.2463 16.7537C78.6831 16.2678 78.9359 15.6661 78.9359 14.9025Z" fill="#FF0054"/>
<path d="M94.245 12.7736C94.245 12.7736 93.9691 12.7041 93.4634 12.5653C92.9577 12.4265 92.544 12.357 92.2222 12.357C91.4636 12.357 90.843 12.5884 90.3832 13.0512C89.9235 13.5141 89.6936 14.1389 89.6936 14.9025C89.6936 15.7124 89.9465 16.3372 90.4522 16.7769C90.9579 17.2397 91.6015 17.4711 92.4061 17.4711C92.7968 17.4711 93.2106 17.3785 93.6933 17.1703C94.176 16.9851 94.3829 16.8694 94.3599 16.8694C94.4978 16.8694 94.7047 17.4248 94.9346 18.5355C95.1415 19.5537 95.2334 20.2017 95.2334 20.5488C95.2334 20.8727 94.7047 21.1504 93.6243 21.405C92.7968 21.5901 92.1302 21.6827 91.6245 21.6827C89.7166 21.6827 88.1535 21.0347 86.9123 19.762C85.671 18.4661 85.0504 16.8694 85.0504 14.9488C85.0504 13.0512 85.671 11.4546 86.9123 10.1355C88.1535 8.83968 89.7166 8.19174 91.6015 8.19174C92.8888 8.19174 94.0151 8.46943 95.0035 9.0248C95.2334 9.1405 95.3483 9.2562 95.3483 9.37191C95.3483 9.48761 95.2104 9.9967 94.9576 10.8992C94.7047 11.7785 94.5668 12.3108 94.4748 12.4959C94.4059 12.681 94.3139 12.7736 94.245 12.7736Z" fill="#FF0054"/>
<path d="M111.094 12.843C111.094 14.7636 110.152 16.2215 108.29 17.2165C108.106 17.3091 108.037 17.4017 108.037 17.4942C108.037 17.6331 108.428 18.2579 109.232 19.3455C110.037 20.4331 110.428 20.9884 110.428 21.0579C110.428 21.2893 109.278 21.405 107.003 21.405C106.129 21.405 105.623 21.2893 105.485 21.0579C105.141 20.4793 104.589 19.6463 103.876 18.5587C103.83 18.5124 103.049 18.443 101.555 18.3736C101.555 18.6512 101.555 19.0678 101.578 19.6694C101.578 20.2711 101.601 20.7107 101.601 20.9884C101.601 21.243 101.486 21.3818 101.233 21.4281C101.072 21.4512 100.405 21.4512 99.1871 21.4512C98.1527 21.4512 97.67 21.4281 97.5091 21.405C97.2792 21.3587 97.3022 21.1736 97.3022 20.8727V12.8661C97.3022 11.8017 97.1183 10.205 97.0494 8.07604C96.9804 5.94711 96.8655 4.35042 96.8655 3.28596C96.8655 3.07769 96.9574 2.96199 97.1873 2.96199C97.647 2.96199 98.3136 2.96199 99.2331 2.93885C99.486 2.91571 99.8767 2.86943 100.474 2.77687C101.003 2.70744 101.417 2.66116 101.716 2.66116C101.854 2.66116 101.923 2.77687 101.923 3.03141C101.923 3.35538 101.9 3.81819 101.854 4.37356C101.785 5.04463 101.762 5.4843 101.739 5.73885C101.67 7.61323 101.624 9.04794 101.624 10.0893C101.624 10.3438 101.647 10.4595 101.716 10.4595C101.785 10.4132 101.9 10.3207 102.037 10.1818C103.164 9.00166 104.52 8.42315 106.129 8.42315C107.646 8.42315 108.841 8.77025 109.738 9.46447C110.611 10.2281 111.094 11.362 111.094 12.843ZM105.945 13.676C105.945 12.6347 105.348 12.1025 104.175 12.1025C103.647 12.1025 103.095 12.3107 102.497 12.7041C101.854 13.1207 101.532 13.6066 101.532 14.0926C101.532 14.8099 101.624 15.2496 101.831 15.3884C101.991 15.5041 102.474 15.5504 103.325 15.5504C105.072 15.5736 105.945 14.9256 105.945 13.676Z" fill="#FF0054"/>
<path d="M124.518 14.2777C124.518 15.157 124.242 15.6661 123.668 15.7818C123.576 15.805 122.679 15.8975 120.978 16.0595C119.967 16.1752 118.45 16.3141 116.427 16.4529C116.542 17.0083 116.91 17.4479 117.53 17.7488C118.036 18.0033 118.611 18.119 119.231 18.119C119.99 18.119 120.771 17.9107 121.553 17.4942C121.875 17.286 122.22 17.0777 122.541 16.8694C122.725 16.962 123.024 17.4017 123.461 18.1884C123.898 18.9983 124.105 19.5074 124.105 19.7157C124.105 19.7851 124.036 19.8777 123.921 20.0165C122.863 21.1504 121.231 21.7289 119.002 21.7289C116.956 21.7289 115.278 21.1273 114.036 19.924C112.749 18.6975 112.083 17.0545 112.083 15.0182C112.083 13.0281 112.657 11.3851 113.807 10.1124C115.002 8.79339 116.588 8.12231 118.542 8.12231C120.197 8.12231 121.599 8.72397 122.771 9.95041C123.921 11.1537 124.518 12.5884 124.518 14.2777ZM119.967 13.4678C119.967 12.9355 119.783 12.4496 119.392 12.0562C119.002 11.6397 118.565 11.4545 118.036 11.4545C117.484 11.4545 117.048 11.686 116.68 12.1488C116.358 12.5653 116.197 13.0744 116.197 13.6529C116.197 13.8843 116.312 14 116.565 14C117.209 14 118.197 13.9074 119.553 13.6992C119.829 13.6529 119.967 13.5835 119.967 13.4678Z" fill="#FF0054"/>
<path d="M134.517 13.2364C134.517 13.5835 134.334 13.7455 133.966 13.7455C133.805 13.7455 133.552 13.7455 133.253 13.7223C132.931 13.6992 132.702 13.6992 132.541 13.6992C131.828 13.6992 131.345 13.8149 131.07 14.0463C130.817 14.2777 130.679 14.7174 130.679 15.4116C130.679 15.7818 130.679 16.3604 130.702 17.124C130.725 17.8876 130.725 18.443 130.725 18.8364C130.725 19.0909 130.748 19.4612 130.771 19.9703C130.794 20.4794 130.817 20.8496 130.817 21.081C130.817 21.2893 130.679 21.405 130.38 21.4281C129.966 21.4513 129.323 21.4744 128.472 21.4744C127.645 21.4744 127.001 21.4513 126.495 21.405C126.219 21.3818 126.058 21.2199 126.058 20.9653C126.058 20.2711 126.058 19.2298 126.081 17.8414C126.081 16.4529 126.104 15.4116 126.104 14.7174C126.104 12.681 125.921 10.9918 125.553 9.67276C125.53 9.60333 125.53 9.53391 125.53 9.48763C125.53 9.34879 125.599 9.27937 125.714 9.23309C126.196 9.18681 126.886 9.09424 127.805 8.9554C129.162 8.67771 129.874 8.56201 129.92 8.56201C130.081 8.56201 130.173 8.8397 130.219 9.37193C130.265 9.9273 130.334 10.1818 130.449 10.1818C130.334 10.1818 130.679 9.95044 131.506 9.48763C132.334 9.02482 133.138 8.79342 133.897 8.79342C134.38 8.79342 134.632 8.90912 134.632 9.11738C134.632 9.37193 134.609 9.71904 134.563 10.1818C134.517 10.6678 134.472 11.038 134.472 11.2463C134.472 11.5009 134.472 11.8248 134.494 12.2414C134.517 12.7273 134.517 13.0744 134.517 13.2364Z" fill="#FF0054"/>
</svg>
