<?xml version="1.0" encoding="utf-8"?>
<!-- Generator: Adobe Illustrator 19.0.0, SVG Export Plug-In . SVG Version: 6.00 Build 0)  -->
<svg version="1.1" id="Layer_1" xmlns="http://www.w3.org/2000/svg" xmlns:xlink="http://www.w3.org/1999/xlink" x="0px" y="0px"
	 viewBox="0 0 832.7 222" style="enable-background:new 0 0 832.7 222;" xml:space="preserve">
<style type="text/css">
	.st0{fill:#CCCCCC;}
	.st1{fill:#8F8F8F;}
	.st2{fill:#A6A6A6;}
	.st3{fill:#969696;}
	.st4{fill:#919191;}
	.st5{fill:#979797;}
	.st6{fill:#9F9F9F;}
	.st7{fill:#929292;}
	.st8{fill:#9B9B9B;}
	.st9{fill:#959595;}
	.st10{fill:#EEEEEE;}
	.st11{fill:#F5F5F5;}
	.st12{fill:#F9F9F9;}
	.st13{fill:#FEFEFE;}
	.st14{fill:#939393;}
	.st15{fill:#909090;}
	.st16{fill:#A3A3A3;}
	.st17{fill:#A4A4A4;}
	.st18{fill:#A2A2A2;}
	.st19{fill:#9E9E9E;}
	.st20{fill:#A9A9A9;}
	.st21{fill:#FCFCFC;}
	.st22{fill:#FDFDFD;}
	.st23{fill:#989898;}
	.st24{fill:#BDBDBD;}
	.st25{fill:#9D9D9D;}
	.st26{fill:#949494;}
	.st27{fill:#A1A1A1;}
	.st28{fill:#E0E0E0;}
	.st29{fill:#FBFBFB;}
	.st30{fill:#D7D7D7;}
	.st31{fill:#9A9A9A;}
	.st32{fill:#A8A8A8;}
	.st33{fill:#F2F2F2;}
	.st34{fill:#B3B3B3;}
	.st35{fill:#A5A5A5;}
	.st36{fill:#AAAAAA;}
</style>
<g id="XMLID_1_">
	<path id="XMLID_540_" class="st0" d="M823.1,120.7L823.1,120.7l-0.2,0c-0.2-0.1-0.3-0.3-0.3-0.5c-0.2-1.9-0.2-3.9,0-5.8
		c0-0.2,0.1-0.4,0.3-0.5c0.1,0,0.1,0,0.2,0C823.1,116.2,823.1,118.4,823.1,120.7z"/>
	<path id="XMLID_539_" class="st1" d="M822.9,113.9c0,2.3,0,4.5,0,6.8c-0.5,10.9-3.6,20.9-10.4,29.6c-6.4,8.2-14.7,13.9-24.4,17.7
		c-7.3,2.8-14.9,4.2-22.7,4.7c-9.6,0.6-19.2-0.1-28.5-2.7c-10.2-2.8-19.2-7.8-26.5-15.4c-7-7.3-11.2-16-12.9-25.9
		c-0.8-4.7-1-9.4-0.9-14.1c0-0.6,0.1-1.1-0.5-1.5c-5-3.3-10.3-5.7-16.4-5.5c-4.1,0.1-7.9,1-11.2,3.6c-3.4,2.7-5,6.4-6,10.5
		c-0.7,2.9-0.8,5.8-0.8,8.7c0,12.5,0,25,0,37.6c0,1.9,0.2,1.7-1.6,1.7c-16.3,0-32.6,0-49,0c0-0.6,0.1-1.3,0.1-1.9
		c0-33.6,0-67.1,0-100.7c0-1.8-0.2-1.6,1.6-1.6c15.6,0,31.2,0,46.8,0c1.3,0,1.5,0.4,1.5,1.5c-0.1,3.9,0,7.8,0,11.8
		c0,0.4,0,0.8,0,1.1c1.2-2.4,2.4-4.6,4.1-6.6c3.7-4.4,8.5-7,13.8-8.6c5-1.5,10.2-2.3,15.5-2c0.4,0,0.7,0.1,1.1,0.1
		c1,0,1.3,0.5,1.3,1.5c0,14.6,0,29.3,0,43.9c0,0.5,0,0.9,0,1.4c0.6-3,1.1-6,2-9c3.7-12.7,11.4-22.2,22.7-29.1
		c7.7-4.7,16.1-7.3,25-8.6c5.5-0.8,11.1-1.1,16.6-0.9c12.8,0.5,24.9,3.3,35.8,10.3c12.8,8.3,20.9,19.7,23.3,35
		C822.6,109.4,822.9,111.7,822.9,113.9z"/>
	<path id="XMLID_538_" class="st1" d="M67.1,102.3c1.4-2.3,2.8-4.5,4.2-6.8c5.8-9.5,10.8-19.4,16.2-29.1c0.4-0.7,0.7-1,1.5-1
		c19,0,38,0,57,0c0.3,0,0.6-0.1,1,0.2c-1.6,2.1-3.1,4.1-4.6,6.2c-10.9,14.6-21.9,29.2-32.9,43.7c-0.6,0.8-0.4,1.3,0.1,1.9
		c12.5,16.9,25.1,33.9,37.6,50.8c0.3,0.4,0.5,0.8,0.9,1.3c-0.5,0-0.8,0-1.2,0c-19.2,0-38.4,0-57.6,0c-0.9,0-1.3-0.3-1.7-1.1
		c-6.8-12.2-13.6-24.3-20.4-36.4c-0.1-0.2-0.2-0.3-0.5-0.7c0,0.7-0.1,1.1-0.1,1.5c0,11.8,0,23.5,0,35.3c0,1.3-0.4,1.5-1.5,1.5
		c-15.9,0-31.8,0-47.8,0c-1,0-1.4-0.2-1.4-1.4c0-52.2,0-104.5,0-156.7c0-1.2,0.4-1.4,1.4-1.4c16,0,31.9,0,47.9,0
		c1.2,0,1.4,0.4,1.4,1.5c0,29.7,0,59.4,0,89.1c0,0.5,0,0.9,0,1.4C66.9,102.3,67,102.3,67.1,102.3z"/>
	<path id="XMLID_537_" class="st1" d="M486.4,155.9c-1.6,2.1-3.1,4.2-5,6c-5.6,5.2-12.3,8.3-19.8,9.7c-11.4,2.1-21.9-0.2-31.1-7.5
		c-5.9-4.7-10.1-10.8-13.4-17.6c-3.7-7.8-5.6-16.1-6.1-24.7c-0.7-12.5,1.5-24.4,7.4-35.4c4.8-9,11.5-16.4,20.9-20.8
		c6.4-3,13.2-3.9,20.2-3.2c8.7,0.8,16,4.3,22,10.7c1.7,1.9,3.3,3.9,4.7,6.1c0.4-0.3,0.2-0.7,0.2-1c0-3.8,0-7.7,0-11.5
		c0-0.7,0.2-1,1-1c16.2,0,32.5,0,48.7,0c1.1,0,1,0.6,1,1.3c0,18.4,0,36.9,0,55.3c0,15.4,0,30.7,0,46.1c0,1.1-0.2,1.5-1.5,1.5
		c-16-0.1-31.9,0-47.9,0c-1.1,0-1.4-0.3-1.4-1.4C486.4,164.2,486.4,160,486.4,155.9z"/>
	<path id="XMLID_536_" class="st1" d="M218.8,155.9c-1.4,1.8-2.7,3.6-4.3,5.2c-5.6,5.6-12.4,8.9-20,10.3
		c-11.6,2.3-22.3,0.1-31.6-7.4c-5.9-4.7-10.2-10.8-13.4-17.6c-3.8-7.8-5.6-16.1-6.1-24.7c-0.7-12.5,1.5-24.4,7.3-35.5
		c4.8-9,11.5-16.4,20.9-20.8c6.4-3,13.2-3.9,20.2-3.2c8.7,0.8,16,4.3,21.9,10.6c1.8,1.9,3.3,4,4.8,6.2c0.4-0.3,0.2-0.7,0.2-1
		c0-3.8,0-7.6,0-11.4c0-0.8,0.1-1.2,1.1-1.2c16.2,0,32.3,0,48.5,0c0.9,0,1.1,0.3,1.1,1.1c0,34,0,67.9,0,101.9c0,1-0.3,1.2-1.2,1.2
		c-16.1,0-32.2,0-48.2,0c-1,0-1.3-0.3-1.3-1.3C218.8,164.3,218.8,160.1,218.8,155.9z"/>
	<path id="XMLID_535_" class="st1" d="M330.2,82.5c2-2.4,3.8-4.8,6-7.1c6.3-6.7,13.7-11.6,22.9-12.6c11.9-1.3,22.8,1.2,31.7,9.7
		c4.9,4.6,7.4,10.6,8.8,17.1c1,4.4,1.3,8.9,1.2,13.5c0,21.7,0,43.4,0,65.2c0,1.2-0.3,1.4-1.5,1.4c-15.9,0-31.8,0-47.6,0
		c-1.1,0-1.4-0.3-1.4-1.4c0-17.4,0-34.8,0-52.2c0-2.4-0.3-4.7-1.1-7c-1-2.7-2.5-4.9-5.5-5.2c-3.4-0.4-6.4,0.6-8.4,3.7
		c-1.2,1.9-1.8,4-2,6.2c-0.2,1.4-0.2,2.8-0.2,4.2c0,16.7,0,33.4,0,50.2c0,1.2-0.3,1.5-1.5,1.5c-15.9,0-31.8,0-47.6,0
		c-1.2,0-1.5-0.2-1.5-1.5c0-33.8,0-67.5,0-101.3c0-1.1,0.2-1.5,1.4-1.5c15,0,30,0,45,0c1,0,1.4,0.2,1.3,1.3
		C330.1,72,330.2,77.2,330.2,82.5z"/>
	<path id="XMLID_534_" class="st1" d="M592.3,209c-3.5,0-7,0-10.5,0c-0.4,0.2-0.9,0.1-1.3,0.1c-10.6,0-21.2,0-31.7,0
		c-0.5,0-1,0.1-1.5-0.1c-0.1-0.1-0.2-0.1-0.3-0.2c-0.4-0.5-0.9-0.9-1.6-0.4c-0.3,0.2-0.6,0.4-0.9,0.4c-6.8,0.1-13.7,0-20.5,0.1
		c-5.4,0-10.9,0.1-16.3-0.1c-3.3-1.5-6.8-1-10.2-0.5c-1.6,0.2-3.2-0.1-4.8,0c-2.9,0.2-5.9,0.1-8.8,0.1c-0.6,0-0.9,0.4-1.4,0.5
		c-0.2,0.1-0.4,0.1-0.6,0.1c-1.3-0.4-2.6-0.1-4-0.2c-0.3,0-0.5-0.1-0.7-0.3c-0.2-0.2-0.4-0.4-0.6-0.6c-0.6-0.9-0.4-1.6,0.6-2
		c0.4-0.1,0.9-0.1,1.3-0.1c1.6,0,3.2,0,4.8,0c4.1,0.1,8.1-0.3,12.2-0.3c2.4,0,4.7,0.7,7.1,0.5c1-0.1,2-0.1,2.8-0.9
		c0.6-0.5,1.3-0.6,2-0.6c3.7-0.1,7.4,0.2,11.1,0c7.9-0.3,15.9-0.1,23.8-0.2c0.8,0,1.6-0.1,2.4,0.2c0.5,0.2,0.9-0.1,1.3-0.4
		c0.4-0.4,0.9-0.8,1.4-1.1c0.7-0.4,0.9-0.9,0.6-1.6c-0.8-1.7-0.5-3.5-0.5-5.2c0-0.6,0-1.3,0-1.9c0-1.4-0.1-2.8,0.1-4.2
		c0.2-0.8,0.3-1.6,0.1-2.4c-0.1-0.1-0.1-0.2-0.2-0.4c-0.3-1.6-0.3-3.3,0.1-4.9c0.1-0.1,0.1-0.3,0.2-0.4c0.1-0.4,0-0.8,0-1.2
		c0-18.8,0-37.6,0-56.3c0-0.4,0-0.7,0-1.1c0-0.1-0.1-0.3-0.1-0.4c-0.1-0.6-0.1-1.1,0-1.7c0-0.1,0.1-0.3,0.1-0.4
		c0.1-0.6,0.1-1.2,0.1-1.8c0-23.5,0-47.1,0-70.6c0-0.6,0-1.2,0-1.8c0.2-1.1,0.8-1.8,1.8-2.2c1-0.4,1.7,0.2,2.3,0.8
		c0.3,0.3,0.5,0.6,0.7,1c0.4,1.1-0.1,2.3,0.4,3.4c0.3,0.9,0.4,1.9,0.1,2.9c-0.2,0.4-0.4,0.8-0.4,1.3c0,0.5,0,1.1,0,1.6
		c-0.1,1.2,0.4,2.3,0,3.5c-0.1,1.1,0,2.3,0,3.4c0,0.4,0.1,0.8,0.3,1.1c0.3,0.4,0.4,0.8,0.2,1.2c-0.7,1.4-0.6,2.8-0.5,4.2
		c0.1,1.5,0.2,3,0,4.5c-0.1,0.7,0,1.4,0,2.2c0.1,1.6,0.6,2,2.1,1.7c1.1-0.2,2.1,0.1,3.1,0.1c3,0,6-0.2,9-0.2c7-0.1,14.1,0,21.1,0
		c0.9,0,1.8,0.1,2.7,0.3c1.2,0.4,1.5,0.2,2.1-0.9c0.7-1.5,0.7-3-0.4-4.4c-0.5-0.6-0.6-1.2-0.1-1.7c1.5-1.6,1.1-3.4,0.7-5.2
		c-0.2-1-0.3-1.9,0-2.8c0.4-1.1,0.5-2.3,0.2-3.3c-0.4-1.3-0.3-2.4,0.1-3.6c0-1.3,0.1-2.5-0.5-3.7c-0.3-0.5,0.1-1.2,0.1-1.7
		c0-0.1,0.1-0.2,0.1-0.4c0-0.1,0.1-0.2,0.2-0.3c0.3-0.6,0.1-1.2,0.2-1.8c0-0.4-0.2-0.6-0.6-0.7c-4.3-0.1-8.7,0.1-13-0.1
		c-1.1-0.3-2.3-0.2-3.4-0.2c-1.3,0-2.6-0.1-3.8,0c-2,0.2-3.9-0.5-5.9-0.5c-0.9,0-1-0.5-0.5-1.1c0.5-0.5,1-1.1,1.6-1.4
		c0.5-0.3,0.8-0.5,0.3-1c-0.1-0.1,0.1-0.2,0.2-0.3c0.9-0.3,1.9-0.2,2.8-0.2c2.3,0,4.5,0,6.8,0c2.1,0,4.3,0,6.4,0
		c1.6,0.1,3.1-0.2,4.7,0.1c0.1,0.1,0.2,0.2,0.2,0.3c-0.1,0.2-0.3,0.3-0.5,0.4c-1.5,0.1-2.9,0.2-4.2,0.2c0,0,0.2,0,0.3,0
		c1.4,0.2,2.8-0.1,4.2-0.1c0.6,0,1.1,0,1.7,0c1.6,0,3.3,0.1,4.9-0.1c1.4-0.4,1.6-0.7,1.6-2.1c0-1.4,0-2.9,0-4.3
		c0-1.3-0.1-1.5-1.4-1.5c-4.5,0-9-0.2-13.6,0.1c-5.3,0.3-10.6,0.1-15.9,0.2c-5.8,0.1-11.5,0-17.3,0c-0.5,0-1,0-1.6,0.1
		c-0.6,0.2-0.7,0.7-0.6,1.3c0,2.2-0.2,4.5,0.3,6.7c0,0.2,0.1,0.5,0.1,0.7c0.1,1.7-0.5,2.3-2.1,2.3c-0.3,0-0.6,0-0.8,0
		c-1.2,0-1.6-0.9-2-1.8c-0.3-3.4,0-6.9,0-10.3c0-0.3-0.1-0.8,0.4-0.9c0.4,0,0.4,0.5,0.4,0.7c0.1,0.7,0.4,1.3,0.9,1.8
		c0.5,0.5,0.6,1,0.6,1.7c0,1,0,2.1,0,3.1c0,0.5,0.1,1.1,0.7,1.1c0.6,0,0.5-0.6,0.5-1c0-1.4,0.2-2.8-0.1-4.2
		c-0.3-1.3-0.4-2.8-1.9-3.7c-1.1-0.6-1.1-1.4-0.2-2.3c0.1-0.1,0.3-0.1,0.4-0.1c3.4-0.1,6.8,0.1,10.2-0.1c0.7-0.2,1.4,0,2.2-0.1
		c0.3-0.1,0.5-0.3,0.9-0.4c-0.6-0.3-1.1-0.5-1.8-0.6c-3.8-2.4-7.6-4.7-11.4-7.1c-0.9-0.6-1.8-1.2-2.7-1.7c-0.6-0.4-1.2-0.6-0.9-1.5
		c0.3-0.9,0.8-1.5,1.8-1.5c1.8,0,3.5,0,5.3,0c0.4,0,0.8,0.2,1.1-0.2c0.3-0.3,0.6-0.4,1-0.2c1,0.3,2.1,0,3.1,0.1c0.2,0,0.4,0,0.6,0.1
		c0.5,0.1,0.9,0.1,1.4,0.1c9.7,0,19.4,0,29.1,0c0.5,0,1,0,1.4-0.1c0.2-0.1,0.4-0.1,0.7-0.1c0.6,0,1.1,0,1.7,0c0.2,0,0.4,0,0.6,0.1
		c1.1,0.3,1.5,0.8,1.4,1.9c-0.1,1-0.9,1.4-1.7,1.4c-1.8,0.2-3.7,0.2-5.5,0c-1.1-0.1-1.5-0.8-1.1-2.1c-2.2,0.1-4.3-0.2-6.4-0.1
		c-2.8,0.2-5.7,0-8.5,0.1c-0.6,0-1.3-0.1-1.2,0.9c0,0.6-0.7,0.7-1.2,0.9c-2.8,1-5.7,0.9-8.6,0.8c-0.8,0-1.7-0.7-2.5-0.1
		c-0.5,0.2-1,0.1-1.5,0.1c-0.4,0-0.2,0.2-0.1,0.4c0.6,1.6,2,1.8,3.3,2.2c0.9,0.2,1.5,0.9,2.2,1.4c2,1.3,3.9,2.6,5.8,4
		c0.7,0.5,1.5,0.8,2.3,0.8c5,0,9.9,0,14.9,0c0.7,0,1.3-0.1,1.8-0.5c3.8-2.8,7.6-5.5,11.3-8.3c-0.1-0.8-0.9-0.6-1.4-0.8
		c-0.5-0.2-1.2-0.2-1.3-0.8c-0.1-0.7,0.5-1,1-1.3c0.7-0.4,1.4-0.6,2.1-0.6c1.7,0,3.4,0,5.1,0c2.3,0.3,3.2,1.6,2.4,3.5
		c-1.2,1.3-2.8,2.2-4.3,3.2c-2.6,1.7-5.1,3.5-7.5,5.4c-0.1,0.1-0.5,0.2-0.2,0.5c2.2,0.2,4.4,0.1,6.6,0.1c1.4,0,2.9,0,4.3,0.1
		c1.3,0.1,2,0.8,2.2,2.1c0.1,0.8,0.1,1.6,0,2.4c-0.1,2.9,0.2,5.7,0,8.6c0,0.5-0.1,1-0.2,1.5c-0.3,1-0.9,1.4-1.9,1.5
		c-1.7,0-1.9,0.2-2,1.9c0,2.2-0.2,4.4,0.2,6.5c0.9,4.4-0.1,8.7-0.3,13.1c-0.1,3.1,0,6.2,0,9.2c0,0.4,0,0.9,0,1.3
		c0,0.4,0,0.8-0.4,0.9c-0.5,0-0.6-0.5-0.6-0.9c-0.1-0.7,0-1.5,0-2.2c-0.1,2.1-0.2,4.2-0.4,6.3c-0.3,3.1-0.5,6.4,0.5,9.5
		c0.1,0.3,0.2,0.6,0.1,0.9c-0.7,3.9,0.1,7.7-0.1,11.1c0-0.9,0.1-2.3,0-3.7c0-0.4,0-0.9,0.5-1c0.6,0,0.5,0.5,0.5,0.9
		c0,0.4,0,0.8,0,1.2c0,17.5,0,35,0,52.5c0,1.2,0.3,2,1.3,2.7c1.4,1,2.6,2.4,3.8,3.6c2.3,2.1,4.2,4.6,6.3,6.9
		c0.8,0.8,1.5,1.6,2.2,2.5c3.6,4.2,7.4,8.3,11.3,12.2c0.6,0.6,1.2,0.5,1.9,0.5c2.4-0.2,4.7,0,7.1-0.1c1.3,0.3,2.7,0.1,4,0.2
		c2.1,0.1,4.1,0.3,6.2,0.3c3.1,0,6.3,0.2,9.4,0.6c2,0.3,3.9,0.4,5.9,0.2c1-0.1,2.4,1.1,2.7,2.1c0.3,1.1-0.3,1.8-1.6,1.9
		c-1.6,0.1-3.1,0.1-4.7,0c-1,0-2,0.1-2.8,0.8c-1.3,0.5-2.6,0-3.9,0.2c-1.8,0.2-3.7,0.1-5.5,0.2c-2.8-0.2-5.6,0.3-8.4,0.2
		c-1.4,0-2.7-0.4-4.2-0.3c0.4,0.9,1.1,1.6,1.6,2.4c0.6,0.9,1.3,1.7,1.9,2.6c0.9,1.2,0.9,1.5-0.1,2.6c-1.5,1.6-2.9,3.3-4.4,4.9
		c-0.2,0.3-0.5,0.6-0.7,0.8c-0.6,0.6-0.4,0.9,0.3,1c0.3,0.2,0.7,0.2,1.1,0.2c1.2,0,2.5,0,3.7,0c1.8,0,3,1.2,3.1,3
		c0,1-0.2,1.9-0.9,2.7c-13.6,0-27.1,0-40.7,0C593.2,208.9,592.7,208.8,592.3,209z"/>
	<path id="XMLID_533_" class="st2" d="M556.5,30.2c-0.8,0-1.6,0-2.4,0c-3,0.2-6.1,0-9.2,0.1c-0.5,0-1-0.1-1.4,0.1l0,0
		c-0.2,0.2-0.6,0.1-0.6,0.5c-0.1,1.2-0.8,2.2-0.7,3.4c0.1,2.9,0,5.9,0,8.8c0,0.4-0.1,0.8,0.1,1.2c0.5,0.5,0.5,1.6,1.7,1.4
		c0.7,0.3,1.4,0.3,2.1,0.1c1.3-0.3,1.9,0.1,1.9,1.5c0,5.6,0,11.1,0,16.7c0,18.5,0,37.1,0,55.6c0,0.5,0.1,1-0.1,1.4v0
		c-0.2,0.6-0.2,1.1,0,1.7l0,0c0.2,0.4,0.1,0.8,0.1,1.2c0,19.1,0,38.1,0,57.2c0,0.4,0.1,0.8-0.1,1.2l0,0c-0.5,0.3-0.5,0.8-0.5,1.3
		c0,0.7-0.4,1-1,0.6c-1.1-0.6-2.1-0.5-3.3-0.4c-0.7,0.1-1.4,0.1-2,0.1c-164.5,0-329.1,0-493.6-0.1c-8.7,0-17.4-0.2-26.1-0.3
		c-1-0.2-2-0.3-3,0c-1.4,0.5-1.7,0.9-1.7,2.5c0,4.9,0,9.8,0,14.8c0,0.6,0.2,1.2-0.4,1.7c-0.1-0.1-0.1-0.2-0.2-0.3c0-5.5,0-11,0-16.4
		c0-2.5,0.4-3,2.9-3c10.1,0,20.2,0.1,30.2-0.1c61.1-1,122.2-0.3,183.3-0.4c95.6-0.1,191.3,0,286.9,0c8.8,0,17.6,0,26.4,0
		c1.1,0,1.6-0.2,1.5-1.5c-0.3-14.3-0.1-28.5-0.1-42.8c0-6.4-0.1-12.8,0-19.2c0.4-23.6,0.1-47.3,0.2-70.9c0-1-0.3-1.3-1.2-1.2
		c-0.7,0-1.3,0.1-2-0.1c-1.9-0.7-2.5-2.1-2.5-3.9c0-3.6,0.1-7.2,0.2-10.8c0-1.3,0.7-1.9,2.1-1.9c3.7,0,7.4,0,11,0
		c0.4,0,0.9,0.2,1.2-0.2C556.7,29.7,556.6,29.9,556.5,30.2z"/>
	<path id="XMLID_532_" class="st3" d="M602.7,160.3c-1.4-0.8-2.2-2.4-3.7-3.2c-1.5-0.8-1.7-2.1-1.7-3.7c0.1-17.5,0-35,0-52.5
		c0-0.4,0.1-0.9-0.4-1.3c0,2.1,0,4.2,0,6.4c-0.5-0.3-0.6-0.7-0.5-1c0.2-2.6-0.3-5.1-0.2-7.6c0.1-1.4-0.4-2.9,0.3-4.3
		c0.3-0.8-0.4-1.5-0.6-2.3c-0.4-2.3-0.5-4.5-0.2-6.8c0.3-3,0.5-5.9,0.8-8.9c0-0.1,0.1-0.3,0.3-0.7c0.4,1.7,0,3.2,0.3,4.8
		c0.4-0.4,0.3-0.8,0.3-1.1c0-2,0-4.1,0-6.1c0-4.4,0.2-8.8,0.7-13.2c0.1-1.2,0-2.3-0.5-3.5c-0.3-0.8-0.1-1.8-0.1-2.7
		c-0.1-1.8,0-3.5,0-5.3c0-0.7,0.1-1.1,0.9-1.1c0.3,0,0.7-0.2,1.1-0.2c1.6-0.1,2-0.6,2.2-2.3c0.3-2.2-0.1-4.4,0-6.7c0-1.5,0-3,0-4.6
		c0-1.4-0.6-1.9-1.9-2.1c-3.2-0.4-6.4-0.1-9.6-0.2c-0.4,0-0.9,0.1-1.3-0.2c3.6,0,7.3,0,10.9,0c1.8,0,2.7,1,2.7,2.8
		c0.1,3.8-0.2,7.5-0.3,11.3c0,2-0.6,2.4-2.6,2.4c-0.9,0-1.3,0.3-1.2,1.3c0.1,3.4,0.4,6.9,0.2,10.3c-0.9,13.3-0.6,26.7-0.7,40
		c0,18.7,0,37.4,0,56.1c0,1.1,0.5,1.7,1.3,2.3C600.4,157.6,601.6,158.8,602.7,160.3z"/>
	<path id="XMLID_531_" class="st4" d="M598.3,17.5c-1.5,0-3,0.1-4.5,0c-1.1-0.1-2.1,0.4-3,1c-0.3,0.2-0.7,0.3-0.6,0.8
		c0.1,0.4,0.5,0.5,0.9,0.5c0.7-0.1,1.3,0.4,1.9,0.6c0.3,0.1,0.9,0.5,0.1,0.9c-1.7,0.2-3.3,0.1-5,0.1c-11.2,0-22.4,0-33.6,0
		c-0.7,0-1.6,0.3-2-0.6c0.6-0.5,1.2-0.6,2-0.3c1.1,0.5,2.3,0.1,3.4,0.2c2.1,0.3,4-0.4,6-0.8c0.5-0.1,1.5-0.2,0.7-1.3
		c-0.4-0.5,0.5-0.5,0.8-0.5c2.4,0,4.9,0.1,7.3,0c2.9-0.2,5.8,0.2,8.6-0.1c0.3,0,0.5,0,0.6,0.2c0.1,0.3-0.1,0.4-0.3,0.6
		c-0.5,0.6-0.3,1.3,0.6,1.4c1.9,0.1,3.8,0.1,5.8,0c0.5,0,1.7-0.2,1.1-1.6c-0.3-0.6-0.5-0.9-1-1.2c1.5-0.4,3.1-1.2,4.6,0
		c1.9,0,3.8,0,5.7,0.1C598.3,17.3,598.4,17.4,598.3,17.5C598.3,17.5,598.3,17.5,598.3,17.5z"/>
	<path id="XMLID_530_" class="st5" d="M592.5,17.2c-1.5-0.6-3.1,0.2-4.6,0c-0.2,0-0.3,0-0.5,0c-0.1-0.1-0.1-0.2,0-0.3
		c0.8-0.2,1.7-0.4,1.9-1.3c0.4-0.4,0.9-0.6,1.4-0.5c0.8,0.1,1-0.3,1-1c0.1-2.4-0.1-2.6-2.4-2.3c-1.6,0.2-3.3,0.1-4.9,0.1
		c-5.1,0-10.1,0-15.2,0c-0.5,0-1,0-1.6-0.1c-2.4-0.4-4.8-0.1-7.1-0.2c-1,0-2,0-3.1,0c-0.8,0-1.5-0.1-2.3,0.1
		c-0.4,0.1-0.8,0.1-1.2,0.1c-1.6,0.1-3.2-0.4-4.8,0.1c-0.2,0.2-0.2,0.4-0.3,0.6c-0.2,0.8-0.2,1.6,0,2.4c0,0.1,0,0.2,0,0.3
		c0,0.2-0.1,0.5-0.1,1c0.1-0.5,0.1-0.8,0.5-1c0.1,0,0.2,0,0.4,0.1c0.6,0.6,0.9,1.1,0.1,1.8c-0.3,0.1-0.5,0.1-0.7-0.1
		c-0.2-0.3-0.5,0.1-0.7,0c0-1.6,0-3.2,0-4.8c0-0.8,0.4-1.2,1.2-1.2c1.2,0,2.5,0,3.7,0c12.6,0,25.2,0,37.8,0c1.1,0,1.6,0.2,1.5,1.4
		C592.4,14,592.5,15.6,592.5,17.2z"/>
	<path id="XMLID_529_" class="st6" d="M598.3,17.5c0-0.1,0-0.1,0-0.2c2.4-0.1,3.3,0.7,3.1,2.5c-0.1,0.5-0.1,1-0.7,1.1
		C600.7,18.6,600.3,18.1,598.3,17.5z"/>
	<path id="XMLID_528_" class="st7" d="M556.5,30.2c0-0.2,0-0.4-0.3-0.5c-0.3-0.2-0.7-0.4-1-0.6c1-0.2,1.5,0,2.5,0.7
		C557.3,29.9,556.9,30.1,556.5,30.2z"/>
	<path id="XMLID_527_" class="st8" d="M16.2,202.6c0-5.6,0-11.2,0-16.8c0-1.5,0.6-2.2,2.2-2.5c0.1,0.3-0.1,0.6-0.3,0.7
		c-1.1,0.6-1.2,1.7-1.2,2.8c0,5.3,0,10.5,0,15.8c0,0.9,0,1.8-0.1,2.7c-0.3,2.2,0.5,3,2.7,3.1c0.4,0,0.7,0,1.1,0
		c21,0,42.1,0.1,63.1,0c8.1-0.1,16.1-0.3,24.2-0.2c1.4,0,2.7-0.1,4.1,0.1c1.4,0.3,2.8,0.3,4.2,0c0.4-0.1,0.7-0.1,1.1-0.1
		c39.8,0.4,79.5,0.3,119.3,0.1c35.4-0.2,70.9,0.1,106.3-0.2c13.9-0.1,27.8-0.3,41.6-0.1c18.2,0.3,36.4,0,54.6,0.2c1.8,0,3.7,0,5.5,0
		c10.4,0.2,20.9,0.2,31.3,0.3c0.7,0,1.4,0.3,2.1,0.2c1.2,0,2.5-0.1,3.7,0.1c0.2,0,0.3,0,0.5,0c0.5-0.1,1-0.3,1.6-0.3
		c7.1,0,14.1-0.2,21.2,0c5.9,0.2,11.8,0.1,17.7,0.2c0.4,0,0.9,0.1,1.3-0.1c7,0,13.9,0,20.9,0c0.7-0.3,1.4-0.5,2.2,0
		c0.5,0.5,1.1,0.5,1.8,0.5c10.5,0,21,0,31.5,0c0.5,0,1,0,1.6,0c-0.4,0.2-0.8,0.2-1.2,0.2c-11.1,0-22.3,0-33.4,0.1
		c-1-0.5-2.1-0.1-3.2-0.1c-13,0-25.9,0-38.9,0c-1.6,0-3.2-0.1-4.8,0c-9.3,0.4-18.6,0.1-27.9,0.2c-0.2,0-0.3,0-0.5,0
		c-16.8,0-33.7,0-50.5,0c-20.6,0-41.1,0-61.7,0c-22.1,0-44.1,0.1-66.2,0c-19.6-0.1-39.3,0.1-58.9-0.1c-20.9-0.2-41.9,0-62.8-0.1
		c-28.8,0-57.7-0.2-86.5,0.1c-11.4,0.1-22.9,0.1-34.3,0.2c-1.7,0-3.3,0-5-0.2c-9.2-0.5-18.4-0.2-27.6-0.3c-2.3,0-2.4,0-2.3-2.4
		C16,205.3,16.2,203.9,16.2,202.6z"/>
	<path id="XMLID_526_" class="st9" d="M592.3,209c0.4-0.4,0.9-0.2,1.4-0.2c13.6,0,27.2,0,40.9,0c0.3-0.8,0.9-1.1,1.8-1.1
		c0.5,0,1,0,1.6,0c37.4,0,74.8,0,112.1,0c17.1,0,34.1,0,51.2,0c1.2,0,2.3,0,3.3,0.7c0.6,0.4,1.5,0.3,2.2,0.2
		c0.4-0.1,0.6-0.4,0.6-0.8c0-0.4,0-0.9,0-1.3c0-6.9,0-13.8,0-20.7c0-0.4,0-0.7,0-1.1c0-0.4,0-0.8,0-1.2c0-0.5-0.2-0.8-0.8-0.7
		c-0.5,0.1-0.9,0.1-1.4,0c-3-0.6-6-0.2-8.9-0.3c-0.6,0-1.3,0.1-1.8-0.4c0-0.2,0.1-0.3,0.3-0.3c3.9,0,7.8-0.1,11.8,0.1
		c1.2-0.2,1.5,0.3,1.5,1.5c0,8.2,0,16.5,0,24.7c0,1-0.3,1.2-1.3,1.2c-45.1,0-90.2,0.1-135.2-0.1c-18.7-0.1-37.3,0-56-0.1
		C607.8,209,600,209,592.3,209z"/>
	<path id="XMLID_525_" class="st2" d="M806.6,181.9c-3.6,0-7.2,0-10.8,0c-0.4,0-0.9-0.2-1.3,0.2c-0.1,0.1-0.2,0.2-0.4,0.2
		c-1.3,0.2-2.7,0-4,0.1c-2.7,0.1-5.5-0.1-8.2,0.1c-5-0.1-10,0.3-15,0.2c-0.5,0-1,0-1.4,0.2c-1.5,0.8-3.1,0.7-4.7,0.7
		c-21.7,0-43.4,0-65.1,0c-8.6,0-17.2-0.1-25.8,0c-3.3,0-6.6,0.2-9.9,0.2c-3.7-0.1-7.4-0.1-11.1-0.6c-2.9-0.4-5.9-0.5-8.8-0.6
		c-2.9,0-5.7-0.1-8.6-0.3c-2.4,0-4.8,0-7.2,0c0.4-0.3,0.9-0.2,1.4-0.2c6,0,12-0.1,18,0c22.2,0.4,44.5,0.1,66.7,0.1
		c4.2,0,8.4,0,12.6,0c16-0.1,32,0,48-0.2c5.8-0.1,11.7-0.1,17.5-0.2c5.8-0.2,11.6-0.1,17.4-0.1C806.1,181.7,806.4,181.7,806.6,181.9
		z"/>
	<path id="XMLID_524_" class="st10" d="M171.8,209c10.5,0,21,0,31.4,0c89.1,0,178.2,0,267.3,0c0.5,0,1,0,1.6,0
		c-0.1,0.5-0.5,0.5-0.9,0.6c-0.5,0.1-1,0-1.6,0c-12.6,0-25.3,0-37.9,0c-2.8,0-5.6,0-8.4,0c-2,0-4,0.4-6,0.4
		c-20.8-0.3-41.6-0.1-62.4-0.2c-0.4,0-0.8,0.1-1.2-0.1c-1.8,0-3.5,0-5.3,0c-1-0.2-1.9-0.2-2.9,0c-0.2,0-0.5,0-0.7,0
		c-0.5-0.2-0.9-0.1-1.4-0.1c-16.7,0-33.5,0-50.2,0c-0.5,0-1,0.1-1.4-0.1c-0.3,0-0.6,0-1,0c-0.5,0.2-1,0.2-1.4,0c-7,0-13.9,0-20.9,0
		c-0.6-0.2-1.1-0.2-1.7,0c-0.6,0-1.3,0-1.9,0c-0.4-0.2-0.9-0.1-1.3-0.1c-9.7,0-19.4,0-29.1,0c-0.4,0-0.9,0.1-1.3-0.1
		c-0.9,0.3-1.8,0-2.7,0c-19.6,0-39.2,0-58.7,0C171.7,209.2,171.7,209.1,171.8,209C171.7,209,171.7,209,171.8,209z"/>
	<path id="XMLID_523_" class="st11" d="M353.7,209.7c18.6,0,37.3,0,55.9,0c2.9,0,5.8,0.1,8.7,0c17.5-1,35.1-0.2,52.7-0.5
		c0.3,0,0.7,0.1,1-0.2c0.1,0,0.2,0,0.2,0c1.3,0.3,2.5,0.1,3.8,0.1c0.5,0.1,1.1,0.2,1.6,0.1c0.1,0,0.2,0,0.4,0c0.6,0.1,1.2,0.1,1.8,0
		c0.1,0,0.3,0.1,0.4,0.1c0.6,0,1.1,0,1.7,0c0.5,0,0.8,0.2,0.8,0.7c0,0.6-0.5,0.4-0.8,0.4c-7.2,0-14.4,0-21.6,0
		c-0.6,0-1.2-0.1-1.8-0.1c-13.6,0-27.3,0.2-40.9,0c-21-0.4-41.9-0.1-62.9-0.2C354.4,210,354,210.1,353.7,209.7z"/>
	<path id="XMLID_522_" class="st12" d="M458.6,210.2c0.7-0.5,1.4,0,2.1,0c7.1,0,14.1,0,21.2,0c0.3,0,0.7,0.2,0.8-0.3
		c0-0.5-0.5-0.4-0.8-0.5c-0.6-0.1-1.3,0.2-1.8-0.2c0.2-0.2,0.5-0.1,0.8-0.1c5.2,0,10.4,0,15.7,0c0.3,0,0.6-0.1,0.8,0.1
		c0.4,0.4,0.9,0.2,1.4,0.2c6.9,0,13.8-0.1,20.8,0c6.9,0.2,13.7,0.2,20.6,0.2c0.3,0,0.8-0.2,0.8,0.4c0,0.5-0.4,0.6-0.9,0.6
		c-1.8-0.3-3.5-0.1-5.3,0c-2.4,0.1-4.9,0-7.4-0.1c-1.1-0.1-2.2-0.2-3.3,0.1c-1,0.2-2-0.1-3.1-0.1c-2.4,0-4.9,0.1-7.3,0.1
		c-1.9,0-3.9-0.1-5.8-0.1c-16,0-31.9,0-47.9,0C459.5,210.4,459,210.6,458.6,210.2z"/>
	<path id="XMLID_521_" class="st11" d="M171.8,209c0,0.1,0,0.2,0,0.2c-28.7,0-57.4-0.3-86.1,0.1c-11.6,0.2-23.2,0.1-34.8,0.3
		c-1.6,0-3.2,0-4.8-0.4c9.6,0,19.1,0.2,28.7,0c31.9-0.5,63.9-0.1,95.8-0.3C170.9,209,171.3,209,171.8,209z"/>
	<path id="XMLID_520_" class="st10" d="M497.2,209.2c-5.8,0-11.5,0-17.3,0c-0.1,0-0.2,0-0.2,0c-0.6,0.2-1.1,0.2-1.7,0
		c-0.1,0-0.2,0-0.2,0c-0.5,0.2-1,0.2-1.4,0c-1.4-0.1-2.7,0.3-4.1-0.2c9.4,0,18.9,0,28.3,0c14.5,0,28.9,0,43.4,0
		c1.1,0,2.2-0.7,3.2,0.3C530.5,209.2,513.9,209.2,497.2,209.2z"/>
	<path id="XMLID_519_" class="st11" d="M291.8,209.5c17.3,0,34.5,0,51.8,0c0.4,0,0.9-0.2,1.2,0.2c-17.2,0-34.5,0-51.7,0
		C292.7,209.7,292.2,209.9,291.8,209.5z"/>
	<path id="XMLID_517_" class="st11" d="M233.2,209.3c10.2,0,20.4,0,30.6,0c0.4,0,0.8-0.1,1.1,0.2c-10.1,0-20.3,0-30.4,0
		C234,209.5,233.6,209.6,233.2,209.3z"/>
	<path id="XMLID_516_" class="st11" d="M345.5,209.7c1-0.4,1.9-0.4,2.9,0C347.5,209.7,346.5,209.7,345.5,209.7z"/>
	<path id="XMLID_515_" class="st11" d="M266.8,209.5c0.6-0.4,1.1-0.4,1.7,0C267.9,209.5,267.4,209.5,266.8,209.5z"/>
	<path id="XMLID_514_" class="st11" d="M289.4,209.5c0.5,0,1,0,1.4,0C290.3,209.8,289.9,209.8,289.4,209.5z"/>
	<path id="XMLID_513_" class="st13" d="M746.1,117.3c-0.1-4.9,1.4-9.3,5.1-12.5c6.3-5.4,16.3-3.6,20.2,3.7
		c3.4,6.3,3.3,12.8-0.8,18.8c-3,4.5-7.5,5.8-12.7,5.3c-7.4-0.8-11.4-7.2-11.8-13.5C746.1,118.5,746.1,117.9,746.1,117.3z"/>
	<path id="XMLID_512_" class="st13" d="M488.3,116.8c-0.1,5.2-1.7,9.8-6.1,13.1c-6.9,5.2-20.1,1.5-21.5-9.1
		c-0.7-5.2,0.2-10,3.6-14.2c6.5-7.8,19-5.8,22.8,3.6C488,112.3,488.3,114.4,488.3,116.8z"/>
	<path id="XMLID_511_" class="st13" d="M192.9,115.8c0.2-4.5,2.4-9.8,8.2-12.6c8.5-4.2,17.9,0.9,19.4,10.5c0.5,3.3,0.2,6.6-1,9.8
		c-3,7.6-10.9,10.8-18.3,7.4C195.6,128.5,192.9,124.1,192.9,115.8z"/>
	<path id="XMLID_510_" class="st13" d="M627.3,203.2c-0.4-0.2-0.8-0.3-1.4-0.3c2-2.3,3.9-4.5,5.9-6.7c1.2-1.3,1.2-1.3,0.1-2.7
		c-1.1-1.5-2.2-2.9-3.3-4.4c-0.2-0.2-0.4-0.4-0.3-0.7c0.1-0.2,0.4-0.2,0.6-0.2c4,0.7,8,0.1,12.1,0.2c1.6,0.2,3.2,0.1,4.8,0.1
		c4,0,7.9-0.7,11.9-0.5c26.6,0,53.2,0,79.8,0c3.7,0,7.4,0.5,11.1,0.2c3.6-0.3,7.1-0.2,10.7-0.2c2.3,0,4.6,0.4,6.9,0.2
		c5.6-0.5,11.2-0.3,16.8-0.2c6.6,0.1,13.2,0.2,19.7,0.2c1.5,0,1.8,0.4,1.5,1.8c-0.2,1.3-0.1,2.6-0.1,3.8c0,2.6,0,5.3,0,7.9
		c0,1.2-0.3,1.5-1.5,1.5c-0.5,0-1,0-1.4,0c-54.9,0-109.9,0-164.8,0C633.3,203.4,630.3,203.3,627.3,203.2z"/>
	<path id="XMLID_509_" class="st5" d="M21.1,183.3c6.1,0,12.2,0,18.4,0c167.2,0.6,334.4,0.1,501.6,0.2c1,0,2,0,3-0.2
		c0.8-0.2,1.8-0.2,2.5,0.6c0.4,0.4,0.7,0.3,0.7-0.3c0-0.6-0.1-1.2,0.7-1.3c-0.4,1.7-0.4,3.4,0,5c-1.3-0.4-2.7,0.1-4,0.1
		c-173.5,0-346.9,0-520.4,0c-0.7,0-1.4,0.1-2.1-0.2c-0.6-1.3-0.3-1.9,1.1-1.9c2.6-0.1,5.1,0,7.7,0c4.7,0,9.4,0.1,14.1-0.3
		c0.4,0,1.2,0.1,1.2-0.4c0-0.5-0.8-0.4-1.2-0.5c-7.1-0.3-14.2-0.2-21.3-0.3C22.3,183.9,21.4,184.3,21.1,183.3z"/>
	<path id="XMLID_508_" class="st14" d="M478,208.8c-8.2,0-16.5,0.1-24.7-0.1c-3.1-0.1-6.1-0.2-9.2-0.2c-18.7,0-37.3,0.2-56-0.1
		c-13.9-0.2-27.9-0.3-41.8-0.1c-33.7,0.4-67.5-0.1-101.2,0.2c-41.4,0.4-82.9,0-124.3,0.2c-1.2,0-2.5-0.3-3.7-0.3
		c-0.2-0.2-0.2-0.4-0.1-0.5c0.9-0.9,0.7-1.8,0-2.7c-0.1-0.1,0-0.3,0.1-0.4c0.1-0.1,0.3-0.1,0.4-0.1c0.1,0,0.3,0.1,0.4,0.1
		c0.8,0.3,1.6,0.1,2.4,0.1c74.3,0,148.7-0.1,223,0.1c13.8,0,27.6,0.1,41.5,0.2c0.7,0,1.4,0.1,2-0.2c0.8-0.1,1.5-0.1,2.3-0.1
		c23.5,0,47.1,0,70.6,0c0.8,0,1.5,0.1,2.3-0.1c0.4-0.1,0.8,0,1.1,0.4c0.2,0.4-0.1,0.5-0.4,0.6c-0.5,0.2-0.9,0.1-1.4,0.1
		c-4.9-0.1-9.8,0.3-14.7,0.2c-3.5-0.1-6.9,0.1-10.4,0.1c-0.5,0-1.1-0.1-1.7,0.3c0.6,0.5,1.3,0.3,1.9,0.3c12,0,24.1,0,36.1,0
		c1.2,0,2.4-0.1,3.3,0.9c0.4,0.4,1.1,0.2,1.5,0.6c0.2,0,0.5,0,0.7,0C478.1,208.6,478.1,208.6,478,208.8
		C478.1,208.7,478,208.8,478,208.8z"/>
	<path id="XMLID_507_" class="st15" d="M794.3,182.1c0.1,0,0.2,0,0.2,0c2.8,0,5.6,0,8.4,0c0.9,0,1.8,0.2,2.7,0.5
		c0.6,0.6,1.6,0,2.2,0.7c0,0.4,0,0.8,0,1.2c-0.3,0.3-0.4,0.6,0,1c0,7.4,0,14.8,0,22.2c0,1.1-0.3,1.5-1.3,1.3c-1-0.2-2.2,0.5-2.9-0.8
		c-0.1-0.2-0.6-0.1-0.9-0.1c-16.1,0-32.2,0-48.2,0c-1.2,0-2.4,0-3.5,0c-38,0-76,0-114,0c-0.9,0-1.8,0-2.4,0.7c0-0.4,0.1-0.8,0.3-1.3
		c0.8-2.1-0.4-4-2.7-4c-1.3,0-2.5,0-3.8,0c0-0.5,0.5-0.3,0.7-0.3c1.6,0,3.2,0,4.8,0c0.2,0,0.4-0.1,0.6,0c1.6,1,3.3,0.6,5,0.6
		c54.6,0,109.1,0,163.6,0c0.6,0.1,0.7-0.6,1.1-0.9c0.1-0.1,0.2-0.1,0.4-0.1c0.7,0,1-0.3,1-1c-0.1-3.6,0.2-7.1-0.2-10.7
		c-0.1-0.6-0.1-1.2,0-1.8c0-0.3,0.1-0.6-0.3-0.6c-0.3,0-0.7,0-1-0.2c-0.1-0.1-0.2-0.2-0.3-0.3c-0.2-0.4-0.6-0.6-1.1-0.7
		c-0.3,0-0.6-0.1-0.8,0c-3.2,0.4-6.4,0-9.6,0c-9.6,0-19.2,0-28.9,0c-0.7,0-1.4,0-2-0.1c-1.1-0.5-2.4,0-3.5-0.4c-2.3-0.7-4.7,0.1-7,0
		c-3.7-0.1-7.3-0.2-11,0c-0.7,0-1.8,0.1-1.9-0.9c-0.1-0.8,1-0.8,1.6-1c0.6-0.2,1.2-0.3,1.8-0.2c5.5,0.2,10.9,0.2,16.4,0
		c5.9-0.2,11.8-0.2,17.6,0c1.9,0.1,3.7,0.3,5.8,0.2c-1.1-0.3-2-0.3-2.9-0.3c-2.5,0.1-5-0.3-7.5-0.3c-0.3,0-0.6,0-0.8-0.1
		c-0.3-0.1-0.5-0.3-0.5-0.6c0-0.4,0.3-0.4,0.5-0.5c0.3-0.1,0.6-0.1,0.8-0.1c4.5,0,9-0.4,13.5-0.3c1.7,0.1,3.4,0,4.9-0.7
		c0.3-0.1,0.7,0,1.1-0.1C791.7,182.2,793,182.4,794.3,182.1z"/>
	<path id="XMLID_506_" class="st13" d="M565.8,191c3-3,6.1-5.9,9.1-8.9c6.1-6,12.3-12,18.4-18c0.7-0.6,1.3-1.3,1.9-2
		c0.5-0.7,0.9-0.9,1.6,0c5.1,6,10.3,11.9,15.5,17.8c2.9,3.3,5.7,6.7,8.6,10c0.3,0.3,0.6,0.6,0.9,1c0.4,0.6-0.2,0.7-0.5,0.8
		c-0.5,0.1-1,0.1-1.4,0.1c-12.4,0-24.9,0-37.3,0c-4,0-8.1,0.1-12.1,0c-1.1,0-2.2-0.1-3.3-0.2C566.6,191.4,566,191.7,565.8,191z"/>
	<path id="XMLID_505_" class="st7" d="M552.7,115.6c0.3-0.5,0.4-1,0.2-1.5c-0.8-1.9-0.3-3.8-0.4-5.7c0-0.6,0.5-1.2,1.1-0.9
		c0.7,0.3,1.4,0.2,2.1,0.2c3.5-0.1,6.9,0.2,10.4,0.2c3.8,0,7.6-0.1,11.4,0c1.8,0,3.6-0.5,5.5,0c0.5,0.1,0.9-0.1,0.9-0.7
		c0.1-0.8-0.4-1.2-1-1.4c-0.3-0.1-0.6,0-1,0c-6.9,0-13.8-0.1-20.8,0c-2,0-4.1,0-6.1,0c-0.3,0-0.5,0.1-0.8,0.2
		c-1.1,0.5-1.7,0.2-1.8-1c-0.1-1.2-0.4-2.5,0.1-3.4c0.7-1.4,0.6-2.5,0-3.9c-0.4-0.8-0.1-2-0.1-3.1c0-1,0.6-1.3,1.6-1.1
		c0.5,0.1,1,0,1.5,0c3.2,0,6.5,0.1,9.7,0.2c4.5,0.2,9-0.4,13.5-0.2c3.5,0.2,7.1,0.2,10.6,0.2c0.3,0,0.6,0,0.8,0
		c0.5-0.1,0.9-0.4,1-0.8c0.1-0.5-0.3-0.7-0.7-0.8c-1.7-0.6-3.5-0.3-5.2-0.2c-0.4,0-0.9,0.2-1.3,0.1c-2.2-0.6-4.5,0.1-6.7,0.1
		c-3.6,0-7.1-0.5-10.7-0.3c-3.7,0.2-7.4,0.2-11.1,0.2c-0.2,0-0.5,0-0.7,0.1c-1.5,0.3-2.2-0.2-2.2-1.7c0-1.6,0-3.3,0.2-4.9
		c0.2-1.8-0.3-3.6-0.2-5.4c0-1,0.3-1.3,1.3-1.3c12.8,0,25.5,0,38.3,0c0.9,0,1.5,0.3,1.6,1.2c0.2,1.4,0.6,2.8-0.8,4
		c-0.5,0.4-0.9,0.6-1.5,0.6c-1.6-0.1-3.2-0.3-4.8-0.2c-2.2,0.1-4.3-0.7-6.5-0.6c-3.2,0.1-6.4,0-9.6,0c-2,0-4-0.3-6-0.2
		c-2.8,0.2-5.7,0.4-8.5,0.4c-0.6,0-1.5,0.2-1.5,1c0,0.9,0.8,1.1,1.6,1.1c9,0,17.9,0.2,26.9-0.1c2.7-0.1,5.5-0.7,8.3-0.6
		c1.8,0.1,2.6,0.8,2.6,2.5c0,1.2,0,2.2-0.6,3.4c-0.4,0.8-0.3,1.8,0.2,2.8c0.6,1.5,0.9,3-0.3,4.5c-0.5,0.6-0.7,1.2,0,1.9
		c0.9,0.9,1.1,3.6,0.4,4.6c-0.3,0.5-0.7,0.9-1.3,0.8c-1.4-0.2-2.9,0-4.3,0.2c-0.4,0-0.8,0-0.8,0.5c0,0.5,0.4,0.7,0.8,0.7
		c1.2,0,2.4,0.1,3.6-0.1c1.1-0.2,2.5,0.8,2.4,1.9c0,1.6,0.3,3.2-0.8,4.6c-0.5,0.6-0.2,1.4,0.3,2c-0.7,0.3-1.5,0.1-2.2,0.1
		c-12.1,0-24.3,0-36.4,0C553.9,116,553.2,116.2,552.7,115.6z"/>
	<path id="XMLID_504_" class="st7" d="M789.3,182.4c-0.9,1.1-2.3,0.8-3.4,0.9c-1.3,0.2-2.6,0.1-3.8,0c-3.9-0.2-7.8,0.4-11.7,0.3
		c-0.3,0-0.7-0.2-0.7,0.3c0,0.4,0.4,0.3,0.7,0.3c3.8,0.2,7.6,0.4,11.4,0.6c0.1,0,0.3,0.1,0.7,0.3c-1.1,0.5-2.1,0.7-3.1,0.5
		c-0.4-0.1-0.9-0.2-1.3-0.1c-0.7,0.2-1.2,0.2-1.8-0.2c-0.1-0.1-0.3-0.1-0.5-0.1c-6.3,0.1-12.7-0.1-19,0.1c-2.7,0.1-5.4,0.3-8.1,0
		c-1.6-0.2-3.2,0.1-4.8,0.1c-1.5,0.1-3.1-0.6-4.6,0.1c-0.4,0.2-0.7,0.2-1.1,0.5c0.4,0.5,0.9,0.7,1.5,0.6c2.3-0.4,4.5,0,6.8-0.1
		c2-0.1,4.1,0.1,6.2,0.1c0.6,0,1.3,0,1.9-0.2c1.3-0.4,2.6,0.1,3.8,0.3c0.8,0.1,1.5,0.3,2.2,0c0.4-0.1,0.6,0.1,0.8,0.4
		c-0.5,0.5-1.2,0.4-1.8,0.4c-4.4,0-8.9,0-13.3,0c-27.5,0-55,0-82.5,0c-1.8,0-3.7-0.2-5.4,0.6c-0.2,0.1-0.5,0.1-0.7,0.1
		c-2.1,0-4.2-0.1-6.3,0.1c-0.2,0-0.4,0-0.5-0.2c0.5-0.7,1.3-1,2.2-1c1.8,0,3.6,0,5.4,0c1.2,0,1.7-0.9,1-2c-0.5-0.9-1.7-1.3-2.8-1.2
		c-1.6,0.1-3.2,0.4-4.8-0.3c-1-0.4-2.2-0.2-3.3-0.3c-2.5-0.2-4.9-0.2-7.4-0.3c-2.9-0.1-5.9-0.3-8.8-0.5c-0.1,0-0.3-0.1-0.4-0.2
		c3.8,0,7.6,0,11.4,0c2.5,0,4.9,0.6,7.3,0.8c0.2,0,0.5,0.1,0.7,0.1c3-0.2,6.1,0.4,9.1,0.2c9.7-0.4,19.4-0.2,29.1-0.2
		c24.5,0,49,0,73.6,0c0.7,0,1.4-0.1,2-0.5c0.6-0.4,1.4-0.5,2.2-0.5c1.7,0,3.4-0.1,5.2,0c2.8,0.1,5.7-0.4,8.5-0.3c0.5,0,1,0,1.4,0.2
		C784.5,182.2,786.9,182.2,789.3,182.4z"/>
	<path id="XMLID_503_" class="st13" d="M616.4,203.2c-5.3-0.1-10.6-0.2-15.9-0.1c-4.5,0.1-9.1-0.1-13.6-0.1c-3.8,0-7.7,0.1-11.5,0.1
		c-1.4,0-2.6-0.3-3.7-1.4c-1.7-1.8-3.7-3.3-5.5-5c0.4-0.3,0.8-0.4,1.3-0.4c5,0,10-0.2,15-0.1c2.7,0.1,5.5-0.1,8.3-0.1
		c2.5,0,4.9-0.1,7.4,0c2.2,0.1,4.5-0.1,6.7-0.1c5.4,0,10.9,0,16.3,0c0.2,0,0.5,0,0.7,0c0.4,0,0.9,0,1,0.5c0.2,0.4-0.2,0.6-0.5,0.9
		c-1.6,1.6-3,3.4-4.7,5C617.3,202.8,616.9,203.1,616.4,203.2z"/>
	<path id="XMLID_502_" class="st7" d="M589.4,158.4c-0.2,1.3-1.4,1.8-2.2,2.4c-1.3,1-1.8,2.4-2.8,3.6c-1.6,1.8-3.2,3.4-6,3.2
		c-1.5-0.1-3-0.2-4.4,0.2c-0.9,0.3-1.6-0.5-2.5-0.5c-5.3,0.1-10.6,0-16,0c-1,0-1.6,0.3-1.6,1.3c0,1.1,0.9,0.9,1.7,0.9
		c1.5,0,3.1-0.2,4.7,0.2c0.8,0.2,1.7-0.2,2.5-0.2c5.4,0,10.7,0,16.1,0c0.1,1.6-1.4,2.2-1.9,3.3c-0.1,0.2-0.5,0.3-0.4,0.7
		c0.1,0.5-0.1,0.5-0.4,0.2c-0.2-0.2-0.5,0-0.4,0.2c0.1,0.9-0.7,0.8-1.1,1.1c-1.3,0.9-2.6,1.7-2.8,3.5c-0.1,0.6-0.6,0.9-1.3,0.9
		c-0.3-0.5,0.6-0.9,0.2-1.4c-0.7-0.3-1.5-0.1-2.2-0.2c-4.6,0-9.2,0-13.8,0c-0.5,0-1.1-0.1-1.5,0.4c-0.2,0.2-0.3,0.3-0.6,0.2
		c0.9-2.5-0.5-4.9,0-7.4c0.1-0.6,0-1.2,0.4-1.8c0.3-0.4,0.3-1.1,0.1-1.5c-0.7-1.1-0.3-2.3-0.4-3.5c0-0.2-0.1-0.5,0-0.6
		c1.1-1.2,0.4-2.3,0.1-3.5c-0.3-1.2-0.2-2.6,0-3.8c0.1-0.7,0.7-1.4,1.5-1.3c2.4,0.3,4.7,0.2,7.1,0c2.2-0.1,4.5,0.1,6.7-0.1
		c2.9-0.3,5.8,0.3,8.7,0.3c3.5,0,6.9-0.1,10.4-0.2c1.7-0.1,3.3,0.6,5,0c0.3-0.1,0.7,0,0.8,0.3c0.2,0.4-0.1,0.6-0.4,0.8
		c-0.4,0.2-0.3,0.9-0.9,0.8c-0.3-0.4-0.6-0.1-0.9-0.1c-0.6,0.1-1.1,0.1-1.7,0.1c-10.3,0-20.7,0-31,0c-0.7,0-1.4,0-2-0.1
		c-0.7-0.2-1.6-0.5-2.1,0.1c-0.6,0.7-0.3,1.7-0.2,2.6c0.1,0.6,0.6,0.5,1,0.5c1.2,0,2.3,0,3.5,0c3.4,0,6.7-0.2,10.1,0
		c5.8,0.4,11.6,0.1,17.4,0.2c0.5,0,1,0,1.4,0c0.9-0.2,1.3-1.1,2-1.5C588.9,158.3,589.1,158.2,589.4,158.4z"/>
	<path id="XMLID_501_" class="st7" d="M593.7,55.2c-0.8,1.5-0.2,3.1,0,4.6c0.1,1.2-0.4,2.3-0.5,3.5c-0.1,1.3,0.6,2.5,0.5,3.9
		c-0.1,1.2,0,2.4-1.1,3.2c-0.5,0.4-0.4,0.9,0,1.4c1.5,1.7,1.5,4.1,0.1,5.8c-0.7,0.8-1.4,0.3-2.1,0.1c-0.7-0.2-1.3-0.3-2-0.3
		c-6.3,0-12.6,0-18.8,0c-4.1,0-8.1,0.4-12.2,0.2c-1.3-0.1-2.5-0.2-3.8,0.1c-1.1,0.3-1.3-1-1.3-1.7c-0.1-1.4-0.1-2.9,0.1-4.3
		c0.3-1.5-0.3-3.1-0.2-4.6c0.1-0.9-0.1-1.8,0.5-2.6c0.3-0.4,0.2-0.8-0.2-1.1c-0.4-0.3-0.4-0.8-0.4-1.2c1,0.4,2-0.1,3-0.1
		c2.4,0,4.8,0.1,7.1,0.2c2.4,0.2,4.8-0.3,7.2-0.2c2,0,4.1-0.1,6.1,0c5,0.3,10,0,14.9,0.4c1.8,0.1,1.8,0.1,2.2-1.7
		c0.2-0.8,0.3-1.5-0.1-2.2c-0.5-0.7-0.2-1.5-0.2-2.3c0-0.3,0.1-0.5,0.3-0.7C593.2,55.4,593.3,55.1,593.7,55.2z"/>
	<path id="XMLID_500_" class="st13" d="M552.4,20.6c0.5,0.3,1,0.2,1.5,0.2c12.6,0,25.2,0,37.8,0c0.4,0,1-0.2,1.3,0.3
		c-3.8,2.8-7.7,5.5-11.5,8.3c-0.6,0.4-1.2,0.6-1.9,0.6c-5.1,0-10.1,0-15.2,0c-0.7,0-1.3-0.2-1.9-0.6c-2.8-1.9-5.6-3.8-8.4-5.7
		c-1.3-0.6-2.6-1.1-3.4-2.4c-0.2-0.2-0.4-0.4-0.7-0.7C550.9,20.6,551.7,20.6,552.4,20.6z"/>
	<path id="XMLID_499_" class="st16" d="M657.5,188.1c0.2,0,0.3,0,0.5,0c1-0.4,2.1-0.4,3.2-0.4c42.2,0,84.4,0,126.7,0.1
		c4.9,0,9.7,0.2,14.6,0.2c0.5,0,1,0,1.5,0.4c0.1,0,0.2,0,0.2,0c0.3,0.3,0.4,0.7,0.4,1.1c-0.1,4.3,0.1,8.5-0.1,12.8
		c0,0.1,0,0.2-0.1,0.4c-0.1,0.1-0.1,0.3-0.2,0.4c-0.3,0.3-0.3,0.8-0.5,1.2c-55.8,0-111.6,0-167.4,0c-0.6,0-1.4,0.3-1.7-0.7
		c0-0.1-0.3-0.2-0.4-0.2c-2,0.1-4-0.3-5.9,0.2c-0.3,0-0.7,0.1-1-0.3c2.1-0.4,4.3-0.3,6.5-0.3c36.8,0,73.5,0,110.3,0
		c19.4,0,38.9,0,58.3,0c1.2,0,1.5-0.4,1.4-1.5c-0.1-3.4,0-6.7,0-10.1c0-0.2,0-0.5,0-0.7c0.1-2.2,0.1-2.2-2.1-2.2
		c-4,0-8.1,0-12.1-0.1c-7.2-0.1-14.4-0.1-21.6,0c-3,0.1-5.9-0.1-8.9-0.1c-5.2,0.1-10.3,0.2-15.5,0.1c-28.6-0.3-57.2-0.1-85.8-0.2
		c-0.1,0-0.2,0-0.4,0C657.5,188.3,657.4,188.3,657.5,188.1C657.5,188.2,657.5,188.1,657.5,188.1z"/>
	<path id="XMLID_498_" class="st17" d="M21.3,187.2c104.9,0,209.7,0,314.6,0c69.5,0,139,0,208.5,0c0.9,0,1.9,0.1,2.5-0.9
		c0.3,0.5,0.2,1.2,0.9,1.2c0,0,0,0,0,0c0.2,0.8,0.2,1.6,0,2.4c0,1.5,0,3,0,4.6c-0.3,1.4,0,2.9-0.1,4.3c0,0.4,0.2,0.9-0.2,1.2
		c-0.7-0.4-0.5-1-0.5-1.6c0-2.6,0-5.2,0-7.8c0-2.7-0.1-2.7-2.7-2.7c-173.4,0-346.8,0-520.1,0c-2.4,0-2.4,0-2.4,2.4
		c0,3.7,0,7.4,0,11.2c0,1.9,0,1.9,1.9,1.9c21,0,42-0.1,63,0.1c7.2,0.1,14.5,0.1,21.7,0.2c0.5,0,1,0,1.5,0.3c0,0.7-0.5,0.5-0.9,0.6
		c-4.1,1.2-8.2,0.7-12.4,0.7c-14.1,0.1-28.2,0-42.2,0c-0.6,0-1.2,0-1.8,0c-9.9,0-19.8,0-29.7,0c-1.4,0-1.6-0.2-2-1.5
		c-0.1-5.4-0.2-10.8,0-16.2C20.9,187.4,21,187.1,21.3,187.2z"/>
	<path id="XMLID_497_" class="st3" d="M552.7,115.6c12.9,0,25.7,0,38.6,0c0.7,0,1.3,0,2,0.2c0.1,0.1,0.2,0.2,0.2,0.2
		c0.2,1.3,0.2,2.6,0,3.8c-0.7,1.2-0.6,2.3-0.2,3.6c0.4,1.4,0.7,2.9-0.3,4.3c-0.2,0.9-0.2,1.8,0,2.6c0.8,1.3,0.7,3.6-0.2,4.6
		c-0.5,0.4-1.1,0.4-1.7,0.4c-1.5-0.2-3.1-0.2-4.6-0.2c-0.4,0-0.8,0-1.1-0.3c0.1-0.8,0.7-0.6,1.2-0.6c1.4-0.1,2.9,0,4.3,0
		c0.8,0,1.5,0,1.5-1.1c0-1.4-0.1-1.6-1.3-1.8c-0.9-0.1-1.7-0.2-2.6-0.2c-4.4,0-8.7-0.1-13.1,0c-6.8,0.3-13.6,0.2-20.4,0.2
		c-1.3,0-1.4,0.2-1.4,1.3c0,1.2,0.2,1.5,1.5,1.5c6.9,0,13.7,0,20.6,0c0.5,0,1,0,1.4,0.1c0.3,0.1,0.9,0,0.8,0.6
		c-2.7,0.3-5.5,0.4-8.2,0.3c-3.7-0.1-7.5,0-11.2-0.2c-1.3-0.1-2.5,0.3-3.8,0.2c-0.6,0-1.2,0-1.7-0.4c-0.3-0.2-0.5-0.4-0.5-0.7
		c0.1-1.2-0.3-2.4,0.2-3.6c0.6-1,1.4-1.6,2.6-0.9c0.2,0.1,0.4,0.1,0.6,0.1c5.3-0.3,10.6,0.2,15.9,0.2c5.8,0,11.7-0.3,17.5-0.2
		c0.4,0,0.8,0,1.2,0c0.4-0.1,0.8-0.1,0.8-0.6c0-0.5-0.5-0.5-0.8-0.5c-1.1,0.1-2.2-0.1-3.2-0.1c-10.2,0-20.4,0-30.6,0
		c-0.6,0-1.3,0-1.9,0.4c-0.8,0.5-1.4,0.4-1.8-0.5c-0.1-0.2-0.3-0.3-0.4-0.4c-0.5-1.4-0.1-2.9-0.2-4.3c0.5-1,0.8-2.1,0-3.1
		C552.6,118.8,552.1,117.2,552.7,115.6z"/>
	<path id="XMLID_496_" class="st7" d="M477.3,208.5c-0.9,0-1.8,0.3-2.3-0.9c-0.2-0.5-0.9-0.3-1.3-0.3c-12.7,0-25.3,0-38,0
		c-0.7,0-1.9,0.3-1.9-0.7c0-0.9,1.1-0.8,1.9-0.7c2.6,0.2,5.2-0.4,7.9-0.1c1.6,0.2,3.3,0.2,4.9,0.1c4.7-0.3,9.5-0.2,14.2-0.2
		c0.2,0,0.3-0.1,0.5-0.2c0.5-0.5,1.1-0.4,1.7-0.4c7.4,0,14.9,0,22.3,0c0.6,0,1.2,0,1.8-0.3c0.7-0.4,1.5-0.4,2.3-0.4
		c4.3,0,8.6,0,12.8,0c0.4,0,0.8,0.1,1.2-0.1c1.5-0.8,3.2-0.6,4.8-0.6c10,0,20,0,30,0c2.1,0,4.2-0.1,6.3,0.6
		c-0.5,0.6-1.1,1.1-1.9,0.6c-0.4-0.2-0.8-0.1-1.2-0.1c-6.1,0-12.1,0-18.2,0c-3.7,0-7.5,0.3-11.2,0.2c-2.3-0.1-4.7,0.2-7,0
		c-0.7-0.1-1.2,0.3-1.6,0.7c-0.6,0.7-1.3,0.8-2.1,0.8c-4,0.1-8-0.9-12-0.5c-4.3,0.5-8.7,0.1-13,0.2c-0.6,0-1.4,0-1.7,0.6
		c-0.4,0.7,0.5,0.9,0.7,1.4C477.2,208.2,477.2,208.4,477.3,208.5z"/>
	<path id="XMLID_495_" class="st7" d="M548.6,83.2c0-11.8,0-23.7,0-35.5c0-0.4,0-0.7,0-1.1c0.1-0.6,0.6-0.6,1-0.7
		c0.5-0.1,0.7,0.1,0.9,0.5c0.5,1.1,0.2,2.5-0.7,3.3c-0.7,0.7-0.7,1.7-0.1,2.4c1.2,1.3,1.3,2,0.5,3.6c-0.4,0.7-0.4,1.4,0,2.1
		c0.8,1.6,0.8,3.1,0,4.7c-0.3,0.6-0.4,1.3-0.1,1.7c1,1.7,0.8,3.5,0.4,5.2c-0.4,1.6,0.1,3.2,0,4.7c0,0.7-0.1,1.4-0.7,1.9
		c-0.8,0.8-0.8,1.7,0,2.4c0.5,0.5,0.7,1.1,0.7,1.8c0,3.5,0.1,7-0.1,10.4c-0.1,2.8,0.3,5.5-0.2,8.3c-0.3,1.5,0.3,3,0.2,4.5
		c0,0.7-0.1,1.3-0.7,1.8c-0.8,0.9-0.8,1.7,0,2.7c0.8,1,0.9,3.9,0.1,4.9c-0.7,0.9-0.6,1.8,0,2.7c0.9,1.3,0.4,2.7,0.3,4
		c-0.1,0.6-0.8,0.6-1.3,0.5c-0.7-0.2-0.4-0.8-0.4-1.2C548.6,107.2,548.6,95.2,548.6,83.2z"/>
	<path id="XMLID_494_" class="st7" d="M585.2,134.8c2.5,0.1,5,0.2,7.5,0.3c-0.1,0.7-0.6,1.1-1.3,0.9c-3.2-0.5-6.4-0.1-9.6-0.6
		c-2.8-0.4-5.8-0.5-8.7,0.2c-1.5,0.4-3,0.1-4.5,0c-1.6-0.1-3.3-0.1-4.9-0.1c-1.6,0-3.2-0.3-4.9-0.4c-1.4-0.2-2.6,0.6-4,0.6
		c-0.3,0-0.6,0.4-0.5,0.8c0.2,0.5,0.5,0.9,1,0.9c1.9-0.1,3.8,0.2,5.8-0.3c1.8-0.5,3.8-0.2,5.7,0c0.5,0.1,1,0.1,1.5,0.1
		c7.4,0,14.9,0,22.3,0c2.9,0,2.9,0,2.9,2.9c0,0.6,0,1.2,0,1.8c-0.1,1.3-0.9,2.1-2.2,2.1c-7.8,0-15.7,0-23.5,0
		c-2.3,0-4.6,0.1-6.9-0.2c-2.3-0.2-4.6,0.3-6.9,0.2c-1.4-0.1-1.7-0.3-1.7-1.7c0-1.3-0.2-2.6,0-3.8c0.2-1.2,0.5-2.4,0.4-3.6
		c8.3,0,16.7,0,25,0c0.2-0.2,0.5-0.3,0.8-0.3c1.9-0.1,3.9-0.1,5.8,0C584.8,134.5,585,134.6,585.2,134.8z"/>
	<path id="XMLID_493_" class="st7" d="M565.8,191c0.3,0.4,0.8,0.2,1.2,0.2c17.8,0,35.6,0,53.4,0c0.4,0,1.1,0.3,1.3-0.4
		c0.4,0.9,0.6,1.8,1.3,2.6c0.3,0.4,0,0.5-0.3,0.5c-6.2,0-12.4,0-18.5,0c-1,0-2,0-3-0.2c-0.3-0.1-0.7,0-0.7-0.3
		c0-1.1-0.8-0.9-1.4-0.9c-2-0.1-4,0-6-0.1c-1.2-0.1-2.4,0.1-3.7,0.1c-2.2,0-4.4-0.1-6.7-0.5c-0.4-0.1-0.9-0.1-1.2,0.1
		c-1.5,0.9-3.1,0.6-4.6,0.4c-0.8-0.1-1.6,0-2.5,0c0.5,0.5,1,0.4,1.6,0.4c1.3,0,2.6,0,4,0c0.3,0,0.8,0,0.8,0.4c0,0.4-0.5,0.3-0.8,0.3
		c-1.7,0-3.4,0-5.2,0c-0.6,0-1.3-0.1-1.9,0.1c-0.4,0.2-0.9,0-0.8-0.4c0.2-1.5-1-1.3-1.8-1.4c-1.4-0.2-2.8-0.3-4.3-0.5
		C565.9,191.5,565.5,191.4,565.8,191z"/>
	<path id="XMLID_492_" class="st13" d="M552.9,17.3c-0.2,0-0.3,0-0.5,0c-0.7-0.9-0.6-1.6,0.1-2.6c0.3-0.1,0.6-0.1,0.8-0.2
		c0.4,0,0.7,0,1.1,0c9.5,0,19,0,28.6,0c0.4,0,0.7,0,1.1,0c2,0,2.5,1,1.6,2.7c-0.2,0-0.3,0-0.5,0c-0.3,0.1-0.6,0.1-0.8,0.1
		c-10.2,0-20.5,0-30.7,0C553.5,17.4,553.2,17.4,552.9,17.3z"/>
	<path id="XMLID_491_" class="st5" d="M546.4,204.2c-0.4,0.2-0.8,0.4-1.1,0.2c-1.1-0.7-2.3-0.4-3.4-0.4c-11.2,0-22.4,0-33.6,0
		c-0.9,0-1.7,0.1-2.4,0.5c-0.5,0.3-1,0.2-1.5,0.2c-4.4,0-8.7,0-13.1,0c-0.9,0-1.8,0.1-2.6,0.6c-0.4,0.2-0.9,0.1-1.3,0.1
		c-8.1,0-16.2,0-24.2,0c-0.9-0.4-1.8,0-2.7,0c-24.5,0-49.1,0-73.6,0c-0.4,0.1-0.9,0.3-1.3-0.1c0-0.7,0.6-0.6,1-0.7
		c1-0.1,2,0.2,3,0.2c1.6,0,3.3-0.3,4.9-0.3c20.6,0,41.2,0,61.8,0c0.7,0,1.4,0,2-0.2c0.6-0.1,1.2-0.1,1.8-0.1c9,0,18,0,27,0
		c0.7,0,1.3,0,1.8-0.5c0.1-0.1,0.3-0.1,0.4-0.2c5.1-0.1,10.2,0,15.3-0.1c0.6,0,1.3,0,1.9-0.2c0.6-0.1,1.2-0.1,1.8-0.1
		c11,0,22.1,0,33.1,0c1.9,0,3.8,0.1,5.7-0.2c0.1,0,0.1,0.1,0.2,0.1C547.1,203.6,546.7,203.9,546.4,204.2z"/>
	<path id="XMLID_490_" class="st7" d="M547.9,121.2c0-24.5,0-48.9,0-73.4c0-1.6-0.3-1.8-2-1.6c-0.7,0.1-1.4,0.2-1.9-0.4
		c2.8,0,3-0.1,2.6-2.9c-0.3-2.4-0.2-4.7-0.2-7c0-0.5,0-1.1,0.7-1.1c-0.2,1.9-0.1,3.8-0.1,5.7c0,1.3,0.1,1.4,1.4,1.4
		c4.9,0,9.8,0,14.7,0c0.6,0,1.1-0.1,1.7,0.2c0.3,0.2,0.2,0.5,0,0.5c-0.9,0.2-0.9,0.7-0.9,1.5c-0.1,1.2-1.3,2-2.9,2.1
		c-2.2,0-4.3,0-6.5,0c-0.6,0-1.1,0-1.6,0.2c-0.1,0-0.3,0-0.4-0.1c-0.3-0.3-0.6-0.7-0.9-1c-0.5-0.5-1-1.2-1.8-0.8
		c-0.9,0.4-1.5,1-1.6,2.1c0,0.4,0,0.7,0,1.1c0,24,0,48,0,72C548.1,120.2,548.3,120.7,547.9,121.2z"/>
	<path id="XMLID_489_" class="st7" d="M552.7,127.9c0.9,0.9,1.7,1.1,2.8,0.3c0.2-0.2,0.6,0,0.9,0c10.3,0,20.7,0,31,0
		c1.1,0,2.2,0.4,3.3,0.1c0.5-0.1,1.2,0.1,1.2,0.8c0,0.6-0.4,1-1.2,1c-3.5,0-6.9-0.1-10.4,0.1c-2.2,0.1-4.3,0.1-6.4,0.2
		c-3.4,0-6.9,0.1-10.3-0.1c-2.7-0.1-5.3-0.2-8,0c0,0-0.1,0-0.1,0c-1.8-0.2-1.8-0.2-2.8,0.3C553,129.6,553,128.8,552.7,127.9z"/>
	<path id="XMLID_488_" class="st7" d="M548.6,145.5c0-7,0-14,0-21c0-0.4-0.3-1.1,0.4-1.1c0.6,0,1.5,0.1,1.4,1.1
		c0,1.3,0.3,2.6-0.3,3.9c-0.2,0.5-0.2,1,0,1.5c0.4,1,0.4,2.1,0.4,3.2c0,0.8-0.2,1.4-0.7,1.9c-0.7,0.7-0.7,1.6,0,2.3
		c0.6,0.6,0.8,1.3,0.7,2.1c-0.1,1.9-0.1,3.8-0.2,5.7c-0.1,2,0.2,4,0.2,6c0,0.9-0.1,1.7-0.7,2.5c-0.6,0.7-0.6,1.5,0.1,2.3
		c0.4,0.5,0.6,1,0.6,1.6c0,2.5,0,5.1,0,7.6c0,1-0.5,1.6-1,2.4c-0.1,0.2-0.4,0.4-0.6,0.3c-0.3-0.1-0.3-0.3-0.3-0.6c0-0.3,0-0.6,0-0.8
		C548.6,159.3,548.6,152.4,548.6,145.5z"/>
	<path id="XMLID_487_" class="st4" d="M552.7,14.8c-0.3,0.8-0.6,1.6-0.2,2.4c-1.1-0.1-2.3,0.3-3.4-0.2c0.2,0,0.5,0,0.7,0
		c1.1-0.7,1.1-0.7-0.2-1.7c-0.1,0-0.2,0-0.2,0c-0.2,0.1-0.3,0.1-0.5,0c0-0.1,0-0.2,0-0.2c-0.2-0.9-0.2-1.8,0-2.6c0-0.2,0-0.5,0-0.7
		c0.2-0.2,0.6-0.2,0.6,0c0.4,1.1,1,0.6,1.5,0.2c0.6-0.4,1.2-0.2,1.8-0.3c0.4,0,0.9,0.1,1.3-0.1c0.4,0,0.8,0,1.2,0
		c0.7-0.3,1.5,0.1,2.2-0.2c1,0,2.1,0,3.1,0c1.9,0.3,3.8,0,5.7,0.1c0.5,0,1-0.1,1.5,0.1c6.7,0,13.4,0,20.1,0c1.1,0,2.2-0.3,3.3-0.3
		c0.8,0,1.1,0.2,1,1c-0.1,0.6,0,1.2,0,1.8c0,0.8,0.4,2.1-1.3,1.3c-0.6-0.3-1,0.4-1.6,0.5c-0.1,0-0.2,0-0.2,0
		c-1.5-0.3-1.5-0.3-1.7,1.3c0,0.1,0,0.1,0,0.2c-0.6,0-1.1,0-1.7,0c0.1-2.3,0.1-2.3-2.6-2.4c-0.1-0.1,0-0.3,0.1-0.3
		c0.3-0.2,0.6-0.2,1-0.2c0.5,0,0.9-0.1,1.4-0.3c0.5-0.2,0.9-0.2,1.4-0.1c1.3,0.3,1.3,0.3,1.2-1.2c-0.4-0.1-0.6,0.2-0.8,0.4
		c-1,0.7-1.5,0.7-2.4-0.1c-0.4-0.4-0.8-0.5-1.3-0.5c-4.5,0-9,0-13.5,0c-0.5,0-0.9,0.1-1.4,0.3c-0.7,0.2-1.5,0.3-2.1,0
		c-1.8-0.8-3.6-0.6-5.4-0.5c-1.6,0.1-3.1,0.1-4.7,0C554.8,12.3,553.5,13.1,552.7,14.8z"/>
	<path id="XMLID_486_" class="st6" d="M552.4,152.1c0-1.7,0-3.4,0-5c0.3-0.5,0.7-0.7,1.3-0.7c0.2,0,0.3,0,0.5,0
		c12.4,0,24.8-0.2,37.2-0.1c0.8,0,1.5,0,1.8,0.8c0.4,1.1,0.2,2.2,0,3.4c-0.3,0.4-0.2,0.9-0.2,1.4c-0.2,0.9-0.7,1.1-1.6,1.1
		c-4.1-0.1-8.1,0-12.2-0.1c-1.9,0-3.7,0-5.6,0.1c-6.4,0.1-12.8-0.2-19.2-0.1C553.6,152.9,552.9,152.7,552.4,152.1z"/>
	<path id="XMLID_485_" class="st5" d="M564.9,42.2c-5.5,0-11,0-16.5,0c-1.6,0-1.7-0.2-1.7-1.7c0-1.4,0-2.8,0-4.2
		c0-0.6,0.1-1.1,0.5-1.5c10.7,0,21.3,0.1,32-0.1c5.6-0.1,11.2-0.1,16.7-0.2c1.5,0,1.6,0.2,1.7,1.7c0,1.4,0,2.8,0,4.2
		c0,2.1-0.1,2.2-1.9,2.8c-1.7-0.2-3.4-0.2-5,0c-0.6,0-1.1,0-1.7,0c-0.3-0.2-0.9-0.2-0.2-0.7c0.2,0,0.3,0,0.5,0
		c1.9-0.3,3.8,0,5.3-0.1c-1.5-0.1-3.4,0.2-5.3-0.1c-1.6,0-3.2,0-4.8,0c-2.2-0.2-4.3-0.2-6.5,0c-3.3,0-6.6,0-9.8,0
		C567,42.8,565.9,42.8,564.9,42.2z"/>
	<path id="XMLID_484_" class="st7" d="M616.4,203.2c2.3-1.9,4.1-4.3,6.3-6.4c-0.5-0.4-0.9-0.3-1.2-0.3c-17.9,0-35.7,0-53.6,0
		c-0.6,0-1.2,0.1-1.8,0.3c0.3-0.5,0.7-0.6,1.2-0.6c4.2,0,8.5-0.5,12.7-0.2c3.1,0.2,6.1,0,9.2-0.1c2.6-0.1,5.2-0.1,7.7-0.1
		c2.5,0,5-0.4,7.5-0.1c0.3,0,1,0.2,0.9-0.4c0-0.5-0.6-0.3-1-0.3c-0.9,0-1.8,0-2.8,0c-0.3,0-0.6-0.1-0.6-0.5c0-0.3,0.4-0.2,0.6-0.2
		c5.5,0,11,0,16.6,0c0.5,0,0.9,0.2,1.2,0.7c0.4,0.7,2.1,1,2.8,0.5c0.2-0.2,0.2-0.3,0.1-0.5c-0.2-0.6,0.1-0.7,0.6-0.7
		c0.5,0,1.1-0.2,1.3,0.2c0.3,0.5-0.4,0.7-0.6,1.1c-1.2,2.5-3.2,4.3-5,6.3C618,202.5,617.4,203.3,616.4,203.2z"/>
	<path id="XMLID_483_" class="st7" d="M552.9,52.5c-0.1-1,0.2-2-0.2-2.9c0.2-0.2,0.5-0.2,0.8-0.2c1,0.2,2.1,0.1,3.1,0.1
		c2.6-0.1,5.2,0,7.7,0.3c1.4,0.2,2.8,0.7,4.2,0.4c2.8-0.1,5.7,0.1,8.5,0.2c0.5,0,1.1-0.1,1.1,0.6c0,0.7-0.6,0.8-1.1,0.8
		c-3.5,0.2-7,0.6-10.5,0.5c-1.8,0-3.6,0.1-5.5,0.4c-1.2,0.2-2.4,0.1-3.6,0.1c-1.5-0.1-3,0.2-4.4-0.2C553,52.6,552.9,52.6,552.9,52.5
		z"/>
	<path id="XMLID_482_" class="st18" d="M553.4,49.6c-0.2,0-0.5,0-0.7,0c-0.5-1.1-0.1-2.2-0.2-3.4c0.1,0,0.2,0,0.2,0
		c0.4-0.3,0.9-0.2,1.4-0.2c1.9,0,3.7,0,5.6,0c0.9,0,1.8,0,2.7-0.2c1.9-0.4,3.8,0,5.7,0.2c3.4,0.3,6.8,0.1,10.1,0.2
		c0.4,0,0.9-0.1,1.3,0.1c4.6,0,9.1,0,13.7,0c0.6,0.4,0.3,0.9,0.3,1.4c-0.2,0.5,0.1,1.2-0.3,1.7c0,0.1,0,0.2,0,0.2
		c-0.1,0.1-0.2,0.2-0.3,0.3c-0.3,0.8-0.7,1-1.6,0.8c-2-0.4-4.1-0.3-6.2-0.3c-7.2-0.2-14.4-0.6-21.5-0.6c-3.2-0.2-6.5-0.1-9.7-0.1
		C553.7,49.8,553.5,49.8,553.4,49.6z"/>
	<path id="XMLID_481_" class="st19" d="M593,58.3c0.7,1.1,0.5,3.5-0.3,4.5c-0.2,0.2-0.3,0.3-0.6,0.3c-4.1-0.6-8.2-0.2-12.3-0.5
		c-4.1-0.3-8.2-0.3-12.2-0.1c-2.3,0.1-4.5,0.2-6.8,0.1c-1.7,0-3.3-0.1-5-0.2c-0.6,0-1.3,0-1.9,0.3c-0.8,0.5-1-0.3-1.5-0.6
		c0-1.2,0-2.4,0-3.6c0.2-0.3,0.4-0.5,0.7-0.5c0.5-0.1,1-0.1,1.4-0.1c12.3,0,24.6,0,36.9,0C592.1,57.9,592.5,58,593,58.3z"/>
	<path id="XMLID_480_" class="st20" d="M557.5,52.5c1.2,0,2.4,0,3.6,0c3-0.2,6-0.3,9-0.2c0.5,0,1,0,1.5,0c2.1-0.1,4.3-0.1,6.4-0.1
		c0.5,0,1-0.1,1.5,0.3c0.1,0.8-0.6,0.6-1,0.7c-1,0.1-1.9,0-2.9,0c-3,0-5.9,0-8.9,0c-4.1,0-8.1,0.5-12.2,0.5c-0.4,0-1-0.1-1,0.6
		c0,0.7,0.5,0.7,1,0.7c11-0.4,22.1-0.1,33.1-0.2c1,0,1.9,0,2.9,0.1c1.5,0.2,1.7,0,1.8-1.5c0-0.2,0-0.5,0.1-0.7
		c0.1-0.3,0.3-0.3,0.5-0.3c0.4,0.1,0.7,0.4,0.6,0.8c-0.1,0.8,0.1,1.6-0.3,2.3c-0.7,1-1.6,1.1-2.7,1.1c-3.8,0-7.6-0.1-11.3-0.3
		c-2.2-0.1-4.4-0.4-6.5,0.2c-0.9,0.2-1.7-0.4-2.6-0.4c-5.2,0.1-10.4-0.3-15.5,0.4c-0.7,0.1-1.3-0.1-1.8-0.7
		c-0.1-0.2-0.2-0.3-0.4-0.5c0-0.6,0-1.1,0-1.7c0.2-0.3,0.2-0.8,0.7-0.8C554.6,52.6,556,52.8,557.5,52.5z"/>
	<path id="XMLID_479_" class="st21" d="M560.8,189.6c-0.6,0.7-1.3,1.4-1.9,2.2c-1.1,0.4-2.2,0.2-3.3,0.2c-0.7-0.2-0.2-0.6-0.2-0.9
		c0.1-0.3,0.1-0.7-0.3-0.7c-0.4-0.1-0.4,0.3-0.4,0.6c0,0.4,0.1,0.9-0.5,1.1c-0.7,0.1-1-0.3-1-0.9c-0.1-1.1-0.1-2.2,0-3.2
		c0-0.8,0.4-1.1,1.2-1.2c2.3-0.2,4.6,0.3,6.9,0.2c0.7,0,1,0.6,0.6,1.3C561.8,188.7,561.4,189.2,560.8,189.6z"/>
	<path id="XMLID_478_" class="st22" d="M559.4,198.7c0.1,0.1,0.1,0.2,0.2,0.3c0.7,0.9,1.6,1.6,2.3,2.4c0.2,0.2,0.5,0.4,0.4,0.8
		c-0.1,0.4-0.5,0.4-0.8,0.5c-2.4,0.5-4.8,0.2-7.3,0.1c-0.7,0-0.8-0.5-0.9-1.1c-0.1-1,0.1-1.9,0.1-2.9c0-0.3,0.2-0.6,0.5-0.6
		c1.7-0.1,3.3-0.3,4.9,0.1C559.1,198.3,559.3,198.5,559.4,198.7z"/>
	<path id="XMLID_477_" class="st7" d="M548.6,176c0-1.8,0-3.7,0-5.5c0-0.3-0.1-0.7,0.3-0.8c0.3-0.1,0.6,0,0.9,0.3
		c0.6,0.6,1,1.2,1,2.1c-0.1,1.4,0.2,2.8-0.6,4.1c-0.2,0.4,0,0.7,0.1,1c0.7,1.4,0.8,3,0.7,4.5c0,0.6-0.1,1.5-1,1.4
		c-0.8-0.1-1.4-0.6-1.4-1.6C548.6,179.6,548.6,177.8,548.6,176z"/>
	<path id="XMLID_476_" class="st3" d="M579.5,46.3c-9,0-17.9,0-26.9,0c0.3-0.6,0.8-0.5,1.2-0.5c2.3,0,4.6,0,6.8,0
		c1.2,0,2-0.5,2.6-1.4c0.4-0.6,0.3-1.1-0.3-1.6c0.6-0.4,1.3-0.2,1.8-0.7c1,0,2.1,0,3.1,0c0.4,0.5,1.1,0.3,1.7,0.9
		c-1.9,0-2.7,1.3-4,2.5c1.8-0.2,3.4,0.4,5,0.5c2.5,0,5,0,7.6,0C578.7,46.1,579.2,45.9,579.5,46.3z"/>
	<path id="XMLID_475_" class="st7" d="M542.3,44.4c-0.4-0.3-0.2-0.7-0.2-1.1c0-3.2,0-6.4,0-9.5c0-1,0.2-1.9,0.7-2.8
		c0.2-0.4,0.4-0.4,0.8-0.4c-0.7,0.9-0.7,1.4,0.3,2c0.4,0.2,0.8,0.4,1.2,0.6c0.2,0.1,0.5,0.2,0.4,0.3c-0.9,1.4,1,2.1,0.6,3.5
		c-0.4,1.2-0.1,2.6-0.1,3.9c0,0.6,0.2,1.4-0.8,1.3c-0.8-0.1-1.2-0.6-1.2-1.4c0-1.2,0-2.4,0-3.6c0-0.4,0.1-0.9-0.3-1.1
		c-1-0.6-1.2-1.6-1.4-2.7C542.3,37,542.3,40.7,542.3,44.4z"/>
	<path id="XMLID_474_" class="st18" d="M571.1,178c0,0.6-0.6,0.8-0.7,1.2c-1.4,1.3-2.6,2.9-4.1,4.1c-0.2,0.1-0.4,0.1-0.5-0.1
		c0.1-0.7,0.7-1.1,1.1-1.6c0.8-0.9,1.8-1.7,2.5-2.8c-0.3-0.3-0.7-0.2-1-0.2c-4.5,0-8.9,0-13.4,0c-1.5,0-1.5,0.1-1.5,1.6
		c0,0.8-0.2,1.6,0.2,2.2c0.5,0.9,1.4,0.2,2.1,0.3c2.8,0.3,5.7,0.2,8.5,0.2c0.5,0,1.1-0.1,1.6,0.3c-0.2,0.9-0.9,1-1.6,1.1
		c-1.7,0.1-3.5,0.1-5.3,0.1c-1.4,0-2.9-0.2-4.3,0.2c-1.2,0.3-1.5-0.6-2-1.3c-0.1-0.1-0.2-0.2-0.2-0.2c0.2-1.2,0.2-2.4,0-3.6
		c0-0.4,0-0.8,0-1.2c0.1-0.1,0.2-0.2,0.2-0.2c0.4-0.3,0.9-0.4,1.4-0.4c5.4,0,10.8,0.1,16.2-0.1C570.6,177.6,570.9,177.8,571.1,178z"
		/>
	<path id="XMLID_473_" class="st5" d="M565.8,183.3c0.2,0,0.3,0,0.5,0c-1.1,1.2-2.4,1.9-4.1,1.6c-1.4-0.2-2.8,0.4-4.3,0.3
		c0,1,0.4,1.3,1.4,1.2c0.9-0.1,1.8,0,2.6,0c-0.1,0.5-0.5,0.4-0.8,0.4c-2.5,0.1-5-0.2-7.5-0.3c-0.1,0-0.2-0.1-0.3-0.2
		c0.3-1.2-0.9-2-0.7-3.1c1,1.3,2.3,0.8,3.6,0.8c2.6-0.1,5.1-0.1,7.7,0C564.7,184.1,565.4,183.9,565.8,183.3L565.8,183.3z"/>
	<path id="XMLID_472_" class="st7" d="M483.5,208.8c-0.5,0-1,0-1.4,0c0.7-0.6,1.5-0.7,2.4-0.7c3,0,6.1-0.2,9.1-0.1
		c2.8,0.1,5.5-0.4,8.3-0.6c1.9-0.1,3.8,0.1,5.4,1.1c-0.4,0.2-0.9,0.1-1.3,0.1c-7.1,0-14.1,0-21.2,0
		C484.4,208.6,484,208.5,483.5,208.8z"/>
	<path id="XMLID_471_" class="st7" d="M547.9,182.4c0-19.8,0-39.7,0-59.5c0.4,0.4,0.2,0.8,0.2,1.2c0,19,0,38,0,57
		C548.1,181.5,548.2,182,547.9,182.4z"/>
	<path id="XMLID_470_" class="st7" d="M593.2,147.1c-0.6-0.6-1.3-0.7-2.2-0.7c-7,0-14-0.2-20.9,0.1c-5.4,0.2-10.8,0.1-16.1,0.2
		c-0.6,0-1.1,0.2-1.6,0.5c-0.1-1,0.6-1,1.3-1c4.8,0,9.7,0,14.5,0c7.9,0,15.8,0,23.6,0C592.5,146.1,593.3,146,593.2,147.1z"/>
	<path id="XMLID_469_" class="st7" d="M552.4,152.1c1,0.5,2.1,0.5,3.3,0.5c6.8,0,13.6,0.5,20.4,0.2c4.9-0.2,9.8,0.1,14.6,0
		c1,0,1.8,0,2.3-1c0.1,0.9-0.2,1.2-1.2,1.2c-12.7,0-25.3,0-38,0C553.1,153.1,552.5,152.9,552.4,152.1z"/>
	<path id="XMLID_468_" class="st16" d="M559.4,198.7c-1-0.8-2.2-0.3-3.3-0.3c-2.5,0.1-2.4,0.1-2.5,2.6c-0.1,1.2,0.3,1.6,1.5,1.6
		c2.1-0.1,4.2,0.1,6.2-0.2c0.3,0,0.6,0.1,0.8-0.2c0.2-0.4-0.2-0.5-0.4-0.8c-0.6-0.9-1.6-1.4-2.1-2.4c1.2,1,2.3,2,3.3,3.3
		c0.4,0.5,0.4,0.7-0.3,0.8c-2.7,0.2-5.5,0.3-8.2,0c-0.6-0.1-0.8-0.3-1-0.8c-0.4-1.4,0-2.8,0.3-4.2c0.1-0.5,0.5-0.5,0.9-0.5
		c1.4,0.2,2.7,0.5,4.1,0.5C559,198,559.3,198.2,559.4,198.7z"/>
	<path id="XMLID_467_" class="st23" d="M553.4,186.4c2.5-0.1,4.9,0.4,7.4,0.2c0.4,0,0.9,0.2,1.2-0.2c1.1-0.1,1.3,0.3,0.7,1.2
		c-0.5,0.8-0.8,1.7-1.9,1.9c0.1-0.1,0.1-0.2,0.2-0.3c0.5-0.6,1.2-1.3,0.9-2c-0.3-0.6-1.1-0.1-1.7-0.2c-1.9-0.1-3.7-0.3-5.6-0.3
		c-0.7,0-1,0.3-1,1c0,1,0.1,2,0,3c0,0.7,0.2,1,1,0.9c0.2-0.2,0.5-0.2,0.7,0c1.2,0,2.4,0,3.6,0c-0.3,0.4-0.8,0.5-1.3,0.5
		c-0.7,0-1.4,0-2.1,0c-2.4,0-2.4,0-2.6-2.4C552.8,188.6,552.3,187.4,553.4,186.4z"/>
	<path id="XMLID_466_" class="st14" d="M483.5,208.8c0.4-0.4,0.9-0.2,1.4-0.2c7.5,0,14.9,0,22.4,0c5.5,0,11,0,16.6,0
		c-0.3,0.4-0.7,0.2-1.1,0.2C509.7,208.8,496.6,208.8,483.5,208.8z"/>
	<path id="XMLID_465_" class="st4" d="M552.9,17.3c7.1,0,14.2,0,21.3,0c3.7,0,7.4,0,11,0c-0.3,0.3-0.8,0.2-1.1,0.2
		c-10,0-20.1,0-30.1,0C553.7,17.5,553.2,17.6,552.9,17.3z"/>
	<path id="XMLID_464_" class="st23" d="M657.5,188.1c0,0.1,0,0.2,0,0.2c-5.3,0.1-10.6,0.3-15.9,0.2c-0.2,0-0.5-0.1-0.7-0.2
		c3.2-0.1,6.4-0.2,9.6-0.3C652.9,188.1,655.2,188.1,657.5,188.1z"/>
	<path id="XMLID_463_" class="st5" d="M598.1,40.1c0-1.5-0.2-3-0.3-4.4c0-0.3,0.1-0.6,0.2-0.9c0.1-0.2,0.2-0.4,0.4-0.3
		c0.1,0.1,0.2,0.2,0.2,0.4c0,0.6,0.1,1.3,0,1.9C598.5,37.8,599,39.1,598.1,40.1z"/>
	<path id="XMLID_462_" class="st5" d="M547.6,199.9c0-1.5,0-3,0-4.4c0-0.4-0.1-0.8,0.2-1.1c0,1.3,0,2.6,0,3.8c0,1,0,1.9,0.5,2.9
		c0.6,1.2,0.4,1.6-0.9,2.2c0,0,0,0,0,0c-0.1-0.3-0.1-0.6-0.1-1C547.4,201.5,547,200.6,547.6,199.9z"/>
	<path id="XMLID_461_" class="st7" d="M588.7,42.4c-0.3,0.4,0.1,0.5,0.2,0.7c-1.7,0.1-3.4,0.2-5.1-0.2
		C585.4,42.6,587,42.4,588.7,42.4z"/>
	<path id="XMLID_460_" class="st7" d="M543.5,30.4c0.3-0.4,0.7-0.2,1.1-0.2c3.1,0,6.3,0,9.4,0c-0.4,0.4-0.8,0.2-1.2,0.2
		C549.7,30.4,546.6,30.4,543.5,30.4z"/>
	<path id="XMLID_459_" class="st9" d="M593.2,55.4c0.1-0.7-0.1-1.4,0.2-2c0.2-0.4,0-0.7-0.4-0.9c-1-1-0.5-1.9,0-2.9
		c0.1,0,0.2,0,0.2,0c-0.5,1.9,0.9,3.6,0.5,5.5c-0.2,0.2-0.3,0.3-0.5,0.5C593.1,55.6,593.1,55.5,593.2,55.4
		C593.2,55.4,593.2,55.4,593.2,55.4z"/>
	<path id="XMLID_458_" class="st16" d="M550.7,21.3c1.1,0.8,2.3,1.6,3.4,2.4C552.1,23.5,551,22.6,550.7,21.3z"/>
	<path id="XMLID_457_" class="st7" d="M577.9,42.2c1.6-0.5,3.3-0.1,4.9-0.2c0.5,0,1.1-0.2,1.6,0.2C582.2,42.2,580,42.2,577.9,42.2z"
		/>
	<path id="XMLID_456_" class="st7" d="M552.4,120.4c1.1,1.4,1.1,1.5,0,3.1C552.6,122.5,552.8,121.5,552.4,120.4z"/>
	<path id="XMLID_455_" class="st7" d="M589.1,42.2c1.8,0,3.6,0,5.5,0c0,0.1,0,0.2,0,0.2c-1.8,0-3.6,0-5.5,0
		C589.1,42.4,589.1,42.3,589.1,42.2z"/>
	<path id="XMLID_454_" class="st24" d="M591,156.2c0.5-0.1,0.4,0.2,0.3,0.4c-0.9,0.3-1.3,1.1-1.9,1.7c-0.2,0.1-0.3,0.2-0.5,0.2
		C588.9,157.2,590,156.7,591,156.2z"/>
	<path id="XMLID_453_" class="st7" d="M593.2,150.4c0-1.1,0-2.2,0-3.4C594.1,148.2,593.7,149.3,593.2,150.4z"/>
	<path id="XMLID_452_" class="st7" d="M590.6,43.2c1.7-0.4,3.4-0.4,5,0C593.9,43.2,592.3,43.2,590.6,43.2z"/>
	<path id="XMLID_451_" class="st7" d="M552.4,55.2c0.1,0.1,0.2,0.2,0.2,0.2c0.3,0.3,0.4,0.6,0.5,1c0.1,0.7,0.6,1.3-0.2,1.9
		c-0.2,0.1-0.3,0.2-0.5,0.2C553,57.4,552.2,56.3,552.4,55.2z"/>
	<path id="XMLID_450_" class="st7" d="M478,208.8c0-0.1,0-0.2,0-0.2c1.2,0.1,2.4-0.4,3.6,0.2C480.4,208.8,479.2,208.8,478,208.8z"/>
	<path id="XMLID_449_" class="st7" d="M593.5,120c0-1.3,0-2.6,0-3.8C593.8,117.4,593.8,118.7,593.5,120z"/>
	<path id="XMLID_448_" class="st7" d="M552.4,179.5c0.4,1.2,0.4,2.4,0,3.6C552.4,181.9,552.4,180.7,552.4,179.5z"/>
	<path id="XMLID_447_" class="st3" d="M593.5,47.7c0-0.5,0-1-0.2-1.4c0.9,1,0.5,2.1,0.2,3.1C593.3,48.8,593.3,48.3,593.5,47.7z"/>
	<path id="XMLID_446_" class="st7" d="M593,130.5c-0.4-0.9-0.4-1.8,0-2.6C593,128.8,593,129.6,593,130.5z"/>
	<path id="XMLID_445_" class="st7" d="M545.2,208c0.6-0.5,1.2-0.2,1.7,0.2C546.3,208.4,545.7,208.6,545.2,208z"/>
	<path id="XMLID_444_" class="st14" d="M545.2,208c0.5,0.3,1.1,0.2,1.7,0.2c0,0.1,0,0.2,0,0.2c-0.7,0-1.4,0-2.2,0
		C544.9,208.4,545.1,208.2,545.2,208z"/>
	<path id="XMLID_443_" class="st5" d="M547.9,189.8c0-0.8,0-1.6,0-2.4C548.2,188.2,548.2,189,547.9,189.8z"/>
	<path id="XMLID_442_" class="st25" d="M593.5,47.7c0,0.6,0,1.1,0,1.7c-0.1,0-0.2,0-0.2,0C593.3,48.8,593,48.2,593.5,47.7z"/>
	<path id="XMLID_441_" class="st7" d="M547.9,122.8c-0.4-0.6-0.4-1.1,0-1.7C547.9,121.7,547.9,122.3,547.9,122.8z"/>
	<path id="XMLID_440_" class="st7" d="M552.9,52.8c-0.2,0.2-0.3,0.5-0.5,0.7c0-0.4-0.2-0.9,0.5-1c0,0,0,0,0,0
		C553,52.6,553,52.6,552.9,52.8C553,52.7,552.9,52.8,552.9,52.8z"/>
	<path id="XMLID_439_" class="st7" d="M21,203.7c0.1,1,0.8,1.2,1.7,1.2c9.9,0,19.8,0,29.7,0c0.4,0.2,0.9,0.1,1.3,0.1
		c9.6,0,19.1,0,28.7,0c0.4,0.1,0.7,0.3,1.1,0.5c0.9,0.4,1.3,1.2,1,2c-0.2,0.9-0.9,1.1-1.7,1.1c-20.4,0-40.8,0-61.1,0
		c-0.5,0-1-0.1-1.4,0.1c-0.4,0-0.8,0-1.2,0c-2.3,0-3.3-1.2-2.8-3.5c0.1-0.5,0.1-1,0.1-1.5c0-5.3,0-10.6,0-15.9
		c0-1.9-0.1-3.6,1.9-4.5c0.9-0.4,1.8-0.4,2.6,0c0.4,0.4,0.8,0.2,1.2,0.2c3.7,0,7.4,0.1,11.1,0c3.8-0.1,7.5,0.4,11.2,0.3
		c0,0,0.1,0,0.1,0c0.7,0,1.5,0.3,1.5,0.9c0,0.7-0.8,0.8-1.5,0.8c-7.3,0.4-14.7,0.2-22,0.2c-1.2,0-1.6,0.3-1.4,1.5
		c-0.1,0.1-0.2,0.2-0.2,0.3c-0.4,2.3-0.6,4.5-0.4,6.9c0.2,2.6,0.1,5.2,0.1,7.8C20.7,202.6,20.6,203.2,21,203.7z"/>
	<path id="XMLID_438_" class="st13" d="M587.5,17c-0.4-0.6-0.5-1.4,0-1.6c0.5-0.2,1.5-0.6,1.9,0.4C589.6,17.6,588.3,16.9,587.5,17z"
		/>
	<path id="XMLID_437_" class="st26" d="M554.1,11.5c-0.3,0.3-0.7,0.3-1,0.2c-0.9-0.1-1.7,0.1-2.4,0.7c-0.6,0.5-1.3,1-1.3-0.5
		c0-0.4-0.3-0.2-0.5-0.3c1-0.6,2-0.4,3-0.3C552.6,11.5,553.3,11.5,554.1,11.5z"/>
	<path id="XMLID_436_" class="st26" d="M567.8,11.5c-2,0-4.1,0-6.1,0c-0.4,0-0.8,0.1-1.1-0.2c2,0,4.1,0,6.1,0
		C567,11.3,567.5,11.1,567.8,11.5z"/>
	<path id="XMLID_435_" class="st26" d="M549.5,15.3c0.1,0,0.3,0.1,0.4,0.1c0.5,0.2,1.1,0.5,1,1c-0.1,0.5-0.7,0.6-1.2,0.6
		C550.2,16.4,549.9,15.8,549.5,15.3z"/>
	<path id="XMLID_434_" class="st26" d="M548.8,12.4c0,0.9,0,1.8,0,2.6C548.4,14.2,548.4,13.3,548.8,12.4z"/>
	<path id="XMLID_433_" class="st26" d="M557.5,11.3c-0.7,0.5-1.4,0.1-2.2,0.2C556,11,556.7,11.3,557.5,11.3z"/>
	<path id="XMLID_432_" class="st26" d="M548.8,15.3c0.2,0,0.3,0,0.5,0c-0.1,0.2-0.2,0.5-0.3,0.7C548.7,15.8,548.9,15.6,548.8,15.3z"
		/>
	<path id="XMLID_431_" class="st14" d="M20.3,208.7c0.4-0.4,1-0.2,1.5-0.2c20.3,0,40.6,0,60.9,0c0.9,0,1.5-0.3,1.7-1.1
		c0.2-0.8-0.2-1.4-1-1.6c-0.3-0.1-0.7-0.3-0.8-0.6c0.9-0.3,1.9,0,2.8,0c6.9,0,13.7,0,20.6,0c0.3,0,0.5,0.2,0.5,0.6
		c-0.1,1,0.4,1.6,1.3,2c0.3,0.1,0.6,0.4,0.3,0.7c-3.1,0-6.2,0-9.3,0c-25.5,0.4-51,0.2-76.4,0.2C21.5,208.8,20.9,208.8,20.3,208.7z"
		/>
	<path id="XMLID_430_" class="st7" d="M107.9,208.5c0-0.4-0.4-0.4-0.6-0.6c-1.3-0.6-1.5-1.1-1-2.5c0.5-0.9,1.4-0.8,2.2-0.8
		c1.5-0.1,2.9-0.1,4.3-0.6c1.4-0.5,3-0.3,4.2,0.9c1.4,1.2,0.9,2.4,0,3.6c-0.3,0-0.6,0-1,0c-1.4,0.2-2.7,0.2-4.1,0
		C110.7,208.5,109.3,208.5,107.9,208.5z"/>
	<path id="XMLID_429_" class="st14" d="M112,208.5c1.4,0,2.7,0,4.1,0C114.7,208.9,113.4,208.9,112,208.5z"/>
	<path id="XMLID_428_" class="st7" d="M807.8,183.3c-0.7-0.4-1.7,0.4-2.2-0.7c0.3,0,0.7-0.1,1-0.1
		C807.3,182.4,807.8,182.5,807.8,183.3z"/>
	<path id="XMLID_427_" class="st7" d="M807.8,185.5c-0.3,0-0.6,0.1-0.7-0.3c-0.1-0.5,0.4-0.5,0.7-0.7
		C807.8,184.8,807.8,185.2,807.8,185.5z"/>
	<path id="XMLID_426_" class="st9" d="M789.3,182.4c-2.4,0-4.8,0-7.2,0c0.3-0.4,0.7-0.2,1.1-0.2c2.3,0,4.7,0,7,0
		c0.1,0.1,0.1,0.1,0.1,0.2c0,0.1-0.1,0.1-0.1,0.1C789.9,182.4,789.6,182.4,789.3,182.4z"/>
	<path id="XMLID_425_" class="st7" d="M790.3,182.4c0-0.1,0-0.2,0-0.2c1.4,0,2.7,0,4.1,0C793,182.6,791.6,182.2,790.3,182.4z"/>
	<path id="XMLID_424_" class="st12" d="M478,209.2c0.6,0,1.1,0,1.7,0C479.1,209.6,478.6,209.6,478,209.2z"/>
	<path id="XMLID_423_" class="st12" d="M476.3,209.2c0.5,0,1,0,1.4,0C477.3,209.6,476.8,209.6,476.3,209.2z"/>
	<path id="XMLID_422_" class="st5" d="M385.6,205.4c0.4,0,0.8,0,1.2,0c-0.4,0.4-0.9,0.2-1.4,0.2c-11.6,0-23.1,0.1-34.7,0
		c-77.2-0.5-154.4-0.1-231.6-0.2c-0.6,0-1.2,0.2-1.6-0.5c0.4-0.4,0.9-0.4,1.5-0.4c14.3,0,28.6,0,42.9,0c0.8,0.1,1.5,0,2.3,0
		c58.9,0,117.9,0,176.8,0c2.5,0,5.1-0.2,7.6,0c11.4,0.9,22.8,0.1,34.3,0.4c0.4,0,0.8,0,1.2-0.1C384.7,204.8,385.2,205,385.6,205.4z"
		/>
	<path id="XMLID_421_" class="st27" d="M161.9,204.9c-14.8,0-29.6,0-44.4,0c-0.1,0-0.2,0-0.2,0c-0.4-0.2-0.7-0.3-1-0.6
		c-0.4-0.3-0.2-0.5,0.2-0.7c0.7-0.1,1.4-0.1,2-0.1c19.8,0,39.7,0,59.5,0c12.9,0,25.8,0,38.7,0c0.5,0,1.1,0,1.6,0.1
		c1.7,0.6,3.4,0.3,5.2,0.4c0.5,0,1-0.1,1.4,0.2c0.2,0.1,0.4,0.3,0,0.5c-20.5,0-41,0-61.5,0C162.9,204.8,162.4,204.7,161.9,204.9z"/>
	<path id="XMLID_420_" class="st23" d="M116.1,204c0.4,0.3,0.8,0.6,1.2,1c-0.1,0-0.2,0-0.2,0c-1.1-0.2-2-0.9-3.2-0.7
		c-0.6,0.1-1.2,0.1-1.8,0.5c-0.9,0.6-2,0.1-3,0.2c-0.9,0.1-1.9-0.3-2.7,0.5c-7.9-0.1-15.8,0.3-23.8-0.2c-9.5,0-19.1,0-28.6,0
		c-0.5,0-1,0.2-1.4-0.2c17.4,0,34.9,0,52.3,0c1.8,0,3.4-0.8,5.1-1c0.4-0.4,0.8-0.4,1.3-0.4c1.2,0,2.4,0,3.6,0
		C115.2,203.6,115.7,203.6,116.1,204z"/>
	<path id="XMLID_419_" class="st7" d="M416.2,206.5c1.3-0.4,2.6-0.4,3.9-0.2c1.1,0.2,2.3-0.3,3.4-0.2c0.4,0,0.7,0,1.1,0
		c0.4,0,0.9,0.1,0.9,0.6c0,0.5-0.5,0.4-0.9,0.4c-2.7,0-5.4,0.1-8-0.2C416.5,206.8,416.3,206.8,416.2,206.5z"/>
	<path id="XMLID_418_" class="st23" d="M803.9,188.3c-4,0-8.1,0-12.1,0c-44.6-0.5-89.2-0.1-133.8-0.2c1-1,2.3-1,3.7-1
		c33.2,0,66.4,0,99.5,0c10.7,0,21.4-0.1,32.1,0.1c3.1,0,6.3,0.1,9.4-0.1C803.7,187.1,804.1,187.4,803.9,188.3z"/>
	<path id="XMLID_417_" class="st23" d="M804.2,203c0-0.1,0-0.2,0-0.2c0.5-1,0.2-2.1,0.3-3.2c0.4-2.2-0.1-4.4-0.1-6.6
		c0-1.6,0.1-3.2,0.8-4.6c0.5-0.4,0.8-0.1,0.7,0.4c-0.4,2.8,0.3,5.5,0.1,8.3c-0.1,1.5,0,3,0,4.4C805.9,203.3,805.9,203.3,804.2,203z"
		/>
	<path id="XMLID_416_" class="st23" d="M805.1,188.4c0.3,0.6,0,1.1-0.2,1.5c-0.3,0.8-0.6,1.5-0.4,2.4c0.4,1.8,0.4,3.7,0.4,5.5
		c0.1,1.6,0.2,3.4-0.8,5c0-4.8,0-9.6,0-14.4C804.5,188.4,804.8,188.4,805.1,188.4z"/>
	<path id="XMLID_415_" class="st23" d="M803.7,204.2c0-0.5-0.1-1,0.5-1.2C804.1,203.4,804,203.9,803.7,204.2z"/>
	<path id="XMLID_414_" class="st13" d="M572.8,91.2c-6.3,0-12.5,0-18.8,0c-0.9,0-1.1-0.3-1.1-1.1c0.1-1.1-0.5-2.5,0.2-3.3
		c0.7-0.8,2-0.2,3.1-0.2c11.8,0,23.6,0,35.4-0.1c0.9,0,1.2,0.2,1.2,1.1c-0.1,0.8-0.1,1.5,0,2.3c0.1,1-0.3,1.2-1.2,1.2
		C585.3,91.2,579,91.2,572.8,91.2C572.8,91.2,572.8,91.2,572.8,91.2z"/>
	<path id="XMLID_413_" class="st13" d="M572.9,108.4c6.2,0,12.4,0,18.6,0c1,0,1.3,0.2,1.3,1.2c0,3.3,0,3.4-3.4,3.3
		c-4.4-0.1-8.8-0.1-13.3-0.1c-7.3,0-14.5,0-21.8,0c-1.2,0-1.5-0.3-1.5-1.5c0.1-2.9,0-2.9,2.8-2.9
		C561.4,108.5,567.2,108.5,572.9,108.4C572.9,108.5,572.9,108.4,572.9,108.4z"/>
	<path id="XMLID_412_" class="st13" d="M592.5,101.2c0.6,1.2,0.2,2.4,0.2,3.6c0,0.4-0.4,0.4-0.7,0.4c-4.2,0-8.4,0-12.6-0.1
		c-2.7-0.1-5.3,0.1-8,0c-3.6-0.1-7.1,0-10.6-0.1c-2.5,0-4.9,0-7.4,0c-0.5-1.1-0.2-2.2-0.2-3.3c0-0.4,0.3-0.6,0.7-0.6
		c0.4,0,0.7,0,1.1,0c11.6,0,23.2,0,34.8,0C590.7,101.1,591.6,101.2,592.5,101.2z"/>
	<path id="XMLID_411_" class="st22" d="M572.9,79.6c6,0,12,0,18,0c1.9,0,1.9,0,1.9,1.9c0,1.9,0,1.9-2,1.9c-12.2,0-24.5-0.1-36.7-0.1
		c-0.9,0-1.2-0.3-1.2-1.2c0-2.4,0-2.4,2.4-2.4C561.1,79.7,567,79.7,572.9,79.6C572.9,79.7,572.9,79.6,572.9,79.6z"/>
	<path id="XMLID_410_" class="st13" d="M572.9,98.1c-6.1,0-12.2,0-18.3,0c-1.7,0-1.7,0-1.7-1.7c0-0.4,0-0.7,0-1.1
		c-0.1-0.8,0.4-1,1.1-1c5.5,0.3,11.1,0.1,16.7,0.1c6.1,0,12.2,0,18.3,0c1,0,1.9-0.1,2.9-0.1c0.4,0,0.8,0,0.8,0.5
		c0.1,1,0.1,1.9,0,2.9c-0.1,0.6-0.7,0.4-1.1,0.4c-3.5,0-7,0-10.5,0C578.4,98.1,575.7,98.1,572.9,98.1z"/>
	<path id="XMLID_409_" class="st28" d="M592.5,101.2c-0.9,0.3-1.9,0-2.8,0c-11.6,0-23.3,0-34.9,0c-1.1,0-1.5,0.4-1.4,1.5
		c0.1,0.8,0,1.6,0,2.4c-0.4,0-0.4-0.2-0.5-0.5c-0.5-3.3-0.2-3.5,3-3.5c11.8,0,23.6,0,35.5,0C591.7,101.1,592.2,100.9,592.5,101.2z"
		/>
	<path id="XMLID_408_" class="st1" d="M591.6,99.5c-0.1,0.6-0.4,0.5-0.8,0.5c-0.2,0-0.5-0.1-0.4-0.3c0.1-0.4,0.5-0.6,0.9-0.7
		C591.6,99,591.5,99.4,591.6,99.5z"/>
	<path id="XMLID_407_" class="st13" d="M591,156.2c-0.7,0.8-1.7,1.3-2.1,2.4c-0.6,0.5-1.1,1-1.7,1.5c-0.4,0.2-0.8,0.1-1.2,0.1
		c-4.1,0-8.2,0-12.2,0c-5.3,0-10.7-0.5-16-0.4c-1.2,0-2.3,0.2-3.5,0.1c-0.8,0-1.2-0.3-1.2-1.1c0-0.2,0-0.4,0-0.6
		c0-2.2,0.1-2.3,2.4-2c11.4,0,22.8,0,34.3,0C590.2,156.2,590.6,156.2,591,156.2z"/>
	<path id="XMLID_406_" class="st13" d="M562.5,170.3c4.9,0.2,9.4-0.1,14-0.1c0.4,0,0.9-0.2,1.1,0.2c0.2,0.5-0.3,0.8-0.6,1.1
		c-0.7,0.8-1.5,1.6-2.2,2.4c-0.5,0.6-1.1,0.9-2,0.9c-3.9-0.2-7.8,0.1-11.7-0.2c-2.3-0.1-4.6,0.1-6.9,0.2c-1,0-1.4-0.3-1.2-1.3
		c0.1-0.6,0.1-1.2,0-1.8c-0.1-1,0.2-1.3,1.3-1.3C557.2,170.4,560,170.3,562.5,170.3z"/>
	<path id="XMLID_405_" class="st29" d="M567.5,166.3c-4.3,0-8.6,0-13,0c-1.3,0-1.9-0.8-1.6-2.1c0.1-0.6,0.6-0.6,1-0.6
		c1.3,0,2.6,0,4,0c8.3-0.1,16.5-0.1,24.8-0.2c0.4,0,0.9-0.2,1.1,0.2c0.2,0.5-0.3,0.7-0.6,1.1c-0.9,1.2-2.1,1.7-3.6,1.6
		C575.7,166.2,571.6,166.3,567.5,166.3C567.5,166.3,567.5,166.3,567.5,166.3z"/>
	<path id="XMLID_404_" class="st30" d="M555.6,156.2c-2.2,0.1-2.2,0.1-2.2,2.4c0,0.9,0.3,1.3,1.2,1.3c1.1-0.1,2.2-0.2,3.3-0.2
		c9.8,0.1,19.5,0.7,29.3,0.5c-0.3,0.3-0.7,0.2-1.1,0.2c-4.7,0-9.4,0.1-14,0c-6-0.2-12.1-0.2-18.1-0.2c-0.9,0-1.2-0.3-1.1-1.1
		c0-0.3,0-0.6,0-0.8C552.9,155.8,553.3,155.5,555.6,156.2z"/>
	<path id="XMLID_403_" class="st5" d="M571.1,178c-1.5-0.2-3-0.1-4.5-0.1c-4.7,0.1-9.3,0-14,0c0.3-0.6,0.8-0.7,1.4-0.7
		c5.4,0,10.8,0,16.2,0C570.7,177.3,571.2,177.3,571.1,178z"/>
	<path id="XMLID_402_" class="st22" d="M572.9,69.3c-6.3,0-12.6,0-18.8,0c-0.9,0-1.2-0.2-1.2-1.2c0-2.5-0.1-2.5,2.3-2.5
		c3.3,0,6.6,0.1,9.8,0c7.8-0.4,15.6-0.1,23.4-0.3c1.1,0,2.2-0.1,3.2-0.3c0.8-0.1,1.1,0.1,1.1,0.9c0.2,3.3,0.2,3.3-3.2,3.3
		C584.1,69.4,578.5,69.4,572.9,69.3C572.9,69.4,572.9,69.3,572.9,69.3z"/>
	<path id="XMLID_401_" class="st22" d="M572.9,75.8c-6.2,0-12.5,0-18.7,0c-0.4,0-1.1,0.2-1.2-0.4c-0.2-0.8-0.3-1.7,0.1-2.5
		c0.2-0.3,0.6-0.2,0.9-0.2c8.1,0.3,16.2,0.2,24.3,0c4.5-0.1,9-0.1,13.5-0.1c0.7,0,0.9,0.2,0.9,0.9c0,2.7,0.2,2.2-2.1,2.2
		C584.8,75.8,578.9,75.8,572.9,75.8z"/>
	<path id="XMLID_400_" class="st9" d="M552.9,58.3c0.5-0.6,0-1.3,0-1.9c2.5,0,4.9-0.4,7.4-0.4c1.7,0,3.4-0.1,5.1,0.2
		c2.5,0.5,5.1,0.1,7.6,0.1c2.7,0,5.5,0,8.2,0c2.9,0,5.7,0,8.6,0.2c0.4,0,0.7,0,1.1,0c0.8,0.2,1.4,0.1,2.1-0.4c0.1,0.7-0.5,1.4,0,2.2
		c-0.8,0-1.5,0-2.3,0C578.1,58.3,565.5,58.3,552.9,58.3z"/>
	<path id="XMLID_399_" class="st1" d="M586.4,71.5c-1.4,0-2.7-0.2-4.1,0c-7.8,1-15.6,0.2-23.4,0.5c-1.2,0-2.3-0.5-3.5,0
		c-0.6,0.2-1.2-0.1-1.3-0.8c-0.1-0.8,0.4-1.1,1-1.3c0.5-0.1,1.1,0,1.6,0.2c0.8,0.4,1.7,0.4,2.5,0c0.9-0.4,2-0.4,2.8-0.1
		c1.1,0.5,2.2,0.4,3.3,0.3c4.5-0.3,9-0.4,13.5,0.2c1.7,0.2,3.4,0.2,5.1-0.1c0.7-0.1,1.5-0.2,2.2,0.2c0.6,0.4,1.3,0.1,2,0.2
		c0.7,0,1.4,0,2.2,0c0.4,0,1-0.1,1,0.4c0,0.6-0.6,0.3-1,0.3C589.1,71.5,587.8,71.5,586.4,71.5z"/>
	<path id="XMLID_398_" class="st31" d="M593,56.1c-0.3,0.8-0.7,1.1-1.8,0.8c-1.5-0.4-3.1-0.3-4.6-0.3c-5.5,0-11.1,0-16.6,0
		c-2,0-4-0.1-6-0.4c-2.6-0.4-5.3,0-7.9,0.3c-1.1,0.1-2.1,0.3-3.2-0.2c-0.3-0.3-0.2-0.6-0.2-1c1.3,1.3,2.9,0.5,4.3,0.4
		c1.6-0.1,3.3-0.1,4.9-0.2c2.4,0,4.7,0,7.1,0c1,0,2-0.1,2.9,0.4c0.3,0.2,0.8,0.2,1.2,0c1.9-0.7,3.9-0.4,5.8-0.2c1.5,0.2,3-0.2,4.5,0
		c2.6,0.3,5.2,0,7.8,0.2c1,0.1,1.4-0.5,2.2-0.8c0,0.1,0,0.2,0,0.2C593,55.7,593,55.9,593,56.1z"/>
	<path id="XMLID_397_" class="st13" d="M111,203.9c-0.4,0-0.8,0-1.2,0c-1.8,0-3.7,0-5.5,0c-27.2-0.3-54.5-0.2-81.7-0.2
		c-1.1,0-1.4-0.3-1.4-1.4c0.1-4.5,0.1-9,0-13.6c0-1.2,0.3-1.5,1.5-1.5c38.6,0,77.1,0.1,115.7,0.1c133.4,0,266.8,0,400.3,0
		c2.5,0,5,0,7.6,0c0.7,0,1,0.1,1.1,1.1c0.1,3.6,0,7.2,0.1,10.8c0,0.2,0.1,0.4,0.2,0.7c0,0.9,0,1.7,0,2.6c-0.6,0.9-1.5,0.8-2.4,0.8
		c-7.1,0-14.2,0-21.4,0c-8,0-16.1,0-24.1,0c-2.4,0-4.7-0.1-7.1-0.2c-1.5-0.1-2.9,0.1-4.2,0.8c-0.6,0.1-1.3,0.1-1.9,0.1
		c-9.1,0-18.2,0-27.3,0c-20.7,0-41.3-0.1-62,0.1c-5.1,0-10.2,0-15.3,0.2c-8.4,0.4-16.8,0.3-25.2,0.1c-9.4-0.2-18.9,0.1-28.3-0.2
		c-4.2-0.1-8.4-0.2-12.6-0.2c-31.5,0-63,0-94.5,0c-1.5,0-3-0.3-4.5-0.2c-13,0-25.9,0-38.9,0c-9.7,0-19.4,0-29.2,0
		c-4.6,0-9.2-0.2-13.8-0.1c-7.7,0.2-15.4,0-23.1,0.1C111.6,203.8,111.3,203.8,111,203.9z"/>
	<path id="XMLID_396_" class="st5" d="M21,203.7c-0.8-0.1-0.8-0.7-0.8-1.3c0.1-3.1,0.2-6.3-0.1-9.4c-0.2-1.9-0.1-3.9,0.9-5.6
		C21,192.8,21,198.3,21,203.7z"/>
	<path id="XMLID_395_" class="st13" d="M572.9,116c6.3,0,12.6,0,18.8,0c0.7,0,1,0.2,1,1c-0.1,4.2,0.7,3.5-3.2,3.4
		c-11.7-0.2-23.3-0.1-35-0.1c-1.2,0-1.5-0.3-1.5-1.4c0.1-2.7,0-2.7,2.7-2.7C561.5,116.1,567.2,116.1,572.9,116
		C572.9,116.1,572.9,116,572.9,116z"/>
	<path id="XMLID_394_" class="st13" d="M572.8,127.7c-6.1,0-12.2,0-18.2,0c-1.1,0-1.6-0.2-1.5-1.4c0.1-2.7,0-2.7,2.7-2.7
		c11.9,0,23.8,0,35.7-0.1c0.9,0,1.2,0.2,1.2,1.2c0,3,0,3-2.9,3C584.2,127.7,578.5,127.7,572.8,127.7
		C572.8,127.7,572.8,127.7,572.8,127.7z"/>
	<path id="XMLID_393_" class="st13" d="M585.2,134.8c-2.4,0-4.9,0-7.3,0c-0.7-0.3-1.5-0.2-2.2-0.2c-7,0-14.1-0.1-21.1-0.1
		c-1.2,0-1.5-0.3-1.5-1.5c0.1-2.3-0.3-2.1,2.1-2.1c4.6,0,9.1,0,13.7,0c6.7,0,13.3-0.1,20-0.1c0.8,0,1.6,0.2,2.4,0.1
		c1.4-0.2,1.6,0.5,1.5,1.6c-0.1,2.3,0.3,2-2,2C588.9,134.6,587.1,134.4,585.2,134.8z"/>
	<path id="XMLID_392_" class="st13" d="M572.8,143c-6.2,0-12.4,0-18.6,0c-0.8,0-1.2-0.2-1.1-1c0.1-1.1,0-2.2,0-3.2
		c0-0.7,0.2-1,0.9-0.9c7.1,0.4,14.1,0.1,21.2,0.1c5.4,0,10.8-0.1,16.2-0.2c1.1,0,1.4,0.3,1.4,1.4c-0.1,0.9-0.1,1.8,0,2.6
		c0.1,1-0.3,1.2-1.2,1.2C585.3,142.9,579,142.9,572.8,143C572.8,143,572.8,143,572.8,143z"/>
	<path id="XMLID_391_" class="st26" d="M552.7,14.8c0-1.4,1.8-3.1,3.4-2.8c2.6,0.4,5.2-0.2,7.7-0.1c1,0,2-0.1,2.9,0.6
		c0.5,0.4,1.3,0.3,1.9,0c0.8-0.4,1.5-0.4,2.3-0.4c4.4,0,8.8,0,13.2,0c0.6,0,1.1-0.1,1.3,0.8c0.2,0.7,1.4,0.6,1.9-0.1
		c0.6-0.7,0.6-0.7,1.6-0.6c0.2,0.3-0.2,0.5-0.2,0.8c0,0.5,0.1,1.2-0.4,1.6c-0.6,0.4-0.8-0.4-1.3-0.5c-0.4-0.1-0.8-0.2-1.2,0.1
		c-0.5,0.4-1.1,0.3-1.7,0.3c0.1-0.9-0.6-1.2-1.3-1.2c-2.8,0.2-5.7-0.1-8.5,0.2c-2.1,0.2-4.3,0.2-6.5,0c-2.4-0.2-4.8-0.1-7.2,0.2
		c-1.9,0.2-3.8,0.5-5.7,0.4c-0.6,0-1.2-0.1-1.6,0.6C553.1,14.8,552.9,14.8,552.7,14.8z"/>
	<path id="XMLID_390_" class="st5" d="M553.4,14.8c-0.4-0.6,0-0.9,0.6-0.9c2.5,0.1,5-0.2,7.5-0.5c1.6-0.2,3.2-0.1,4.8-0.3
		c1-0.1,2,0.2,3,0.3c4.1,0.1,8.3-0.4,12.4-0.3c0.8,0,1.6-0.2,2.3,0.2c0.3,0.2,0.7,0.1,0.8,0.6c0.1,0.5-0.5,0.4-0.7,0.7
		c-0.3,0-0.6,0-1,0c-0.1,0-0.1,0.1-0.2,0.1c-5.5,0-10.9,0-16.4,0c-4.1,0-8.1-0.1-12.2,0.1C554,14.8,553.7,14.8,553.4,14.8z"/>
	<path id="XMLID_389_" class="st26" d="M554.3,14.8c0.2-0.2,0.5-0.2,0.8-0.2c3.6-0.1,7.3-0.2,10.9-0.1c5.7,0.1,11.4,0,17.1,0.1
		c0,0.1,0,0.1,0,0.2C573.5,14.8,563.9,14.8,554.3,14.8z"/>
	<path id="XMLID_388_" class="st8" d="M161.9,204.9c0.4-0.4,1-0.2,1.5-0.2c20.5,0,41.1,0,61.6,0c0.4-0.5,1-0.4,1.6-0.4
		c15.3,0,30.5,0,45.8,0c21.8,0,43.6,0,65.4,0c5.8,0,11.5,0,17.3,0c0.5,0.1,1,0.1,1.6,0.1c7.6,0,15.2,0,22.8,0c0.8,0,1.7-0.2,2.5-0.1
		c5.5,0,10.9,0,16.4,0c19.3,0,38.7,0,58,0c0.7,0,1.4-0.2,1.9,0.4c-0.4,0.4-1,0.2-1.5,0.2c-21.1,0-42.2,0-63.3,0
		c-2.3,0-4.6,0.4-6.9,0c-0.4-0.1-0.9-0.2-1,0.5c-1-0.3-2,0-2.9,0c-10,0-19.9,0-29.9,0c-1.8,0-3.6-0.5-5.5-0.5
		C285.5,204.9,223.7,204.9,161.9,204.9z"/>
	<path id="XMLID_387_" class="st17" d="M458.3,204.7c-20,0-40,0-60,0c0.1-0.6,0.6-0.5,1-0.6c3.2,0,6.4,0.1,9.5-0.1
		c2.5-0.1,4.9,0.2,7.4-0.2c2.9,0,5.8,0,8.7,0c2.4,0.3,4.9,0.1,7.3,0c9,0,18,0,27.1,0c9.6,0,19.1,0,28.7,0c0.3,0,0.7-0.1,1,0.1
		c-0.4,0.8-1,0.7-1.7,0.7C477.7,204.7,468,204.7,458.3,204.7z"/>
	<path id="XMLID_386_" class="st0" d="M488.6,203.7c2-1.5,4.2-0.8,6.4-0.8c0.5,0,0.9,0.1,1.4,0.1c16.5,0,32.9,0,49.4,0
		c0.7,0,1.4,0,1.9-0.5c0.1,0.3-0.1,0.5-0.3,0.7c-1,0.5-2,0.5-3,0.5c-12.6,0-25.2,0-37.8,0c-0.4,0.2-0.9,0.1-1.3,0.1
		c-5.3,0-10.5,0-15.8,0C489.1,203.8,488.8,203.9,488.6,203.7z"/>
	<path id="XMLID_385_" class="st32" d="M488.6,203.7c0.2,0,0.5,0,0.7,0c0.1,0,0.1,0.1,0.1,0.1c0,0-0.1,0.1-0.1,0.1
		c-0.1,0-0.2,0-0.2,0c-9.9,0-19.8,0-29.8,0c-0.1-0.1-0.1-0.1-0.1-0.2c0,0,0.1-0.1,0.1-0.1C469,203.7,478.8,203.7,488.6,203.7z"/>
	<path id="XMLID_384_" class="st17" d="M489.3,204c0-0.1,0-0.1,0-0.2c5.8,0,11.5,0,17.3,0c-0.4,0.4-0.9,0.2-1.4,0.2
		C499.9,204,494.6,204,489.3,204z"/>
	<path id="XMLID_383_" class="st13" d="M573,147.1c6.1,0,12.2,0,18.3,0c1.1,0,1.4,0.3,1.4,1.4c0,3.4,0,3.4-3.4,3.4
		c-11.6,0-23.3,0-34.9,0c-1.1,0-1.5-0.3-1.4-1.4c0.1-0.7,0.1-1.4,0-2.2c-0.1-1,0.4-1.3,1.3-1.3C560.6,147.1,566.8,147.1,573,147.1
		C573,147.1,573,147.1,573,147.1z"/>
	<path id="XMLID_382_" class="st22" d="M572.2,41.7c-7.8,0-15.6,0-23.4,0c-1.1,0-1.5-0.3-1.4-1.4c0.1-1.2,0.1-2.5,0-3.7
		c0-1,0.3-1.3,1.3-1.3c7.1,0,14.2,0,21.4,0c5.4,0,10.9,0.1,16.3-0.1c3-0.1,5.9-0.1,8.9-0.1c1,0,1.6,0.2,1.4,1.5
		c-0.2,1.4-0.2,2.9,0.1,4.4c0.2,1-0.5,0.8-1.1,0.8c-3.2,0-6.3,0-9.5,0C581.5,41.7,576.9,41.7,572.2,41.7z"/>
	<path id="XMLID_381_" class="st3" d="M571.6,52.5c-3.5,0-7,0-10.6,0c0.2-0.2,0.4-0.2,0.6-0.2c2.7,0.1,5.3-0.4,8-0.2
		c2.6,0.2,5.1-0.5,7.6-0.5c0.3,0,0.7-0.1,0.7-0.4c0-0.5-0.5-0.3-0.7-0.3c-2.9-0.1-5.8-0.4-8.7-0.2c0.1-0.6,0.6-0.5,1-0.6
		c3.4-0.1,6.7,0.1,10.1,0.4c0.7,0.1,1.4,0.1,2.1-0.1c2.8,0,5.5-0.1,8.2,0.1c0.6,0,1.4,0,1.3,0.8c-0.1,0.7-0.8,0.8-1.4,0.8
		c-0.9,0-1.8,0-2.6,0c-5.1,0-10.1,0.4-15.2,0.2C571.9,52.4,571.8,52.4,571.6,52.5z"/>
	<path id="XMLID_380_" class="st3" d="M581.7,50.6c-0.7,0.5-1.4,0.3-2.1,0.2c-3.5-0.3-7.1-0.5-10.6-0.4c-0.2,0-0.3,0.1-0.5,0.2
		c-1.2,0.2-2.4,0-3.6-0.3c-1.3-0.4-2.7-0.3-4.1-0.4c-2.1-0.1-4.1,0-6.2,0c-0.4,0-0.9,0.2-1.2-0.2c3.4,0,6.9,0,10.3,0
		c0.4,0.2,0.9,0.1,1.3,0.1c5,0,10.1-0.1,15.1,0.5C580.6,50.3,581.2,50.3,581.7,50.6z"/>
	<path id="XMLID_379_" class="st25" d="M552.9,52.8c0-0.1,0-0.2,0-0.2c1.5,0,3,0,4.6,0C556,53,554.4,52.6,552.9,52.8z"/>
	<path id="XMLID_378_" class="st22" d="M572.9,49.3c-6.2,0-12.4,0-18.6,0c-0.9,0-1.5-0.3-1.5-1.4c0-1.2,0.6-1.2,1.4-1.2
		c12.4,0,24.9,0,37.3,0c0.9,0,1.2,0.2,1.2,1.1c-0.1,0.9,0.1,1.6-1.2,1.6C585.3,49.4,579.1,49.4,572.9,49.3
		C572.9,49.4,572.9,49.4,572.9,49.3z"/>
	<path id="XMLID_377_" class="st25" d="M581.7,50.6c-5.7-0.6-11.3-0.8-17-0.7c-0.3,0-0.7,0.1-1-0.2c4,0,8-0.3,12,0.1
		c4.5,0.4,9,0.3,13.5,0.5c0.9,0,1.8,0,2.7,0.4c0.4,0.2,0.5,0.1,0.6-0.3c0.1-0.3,0.1-0.7,0.5-0.7c-0.3,1-0.3,1.9,0,2.9
		c-0.2,0-0.3,0-0.5,0c-0.4,0.4-0.9,0.4-1.5,0.4c-3.3,0-6.7,0-10,0c-0.5,0-1,0-1.5-0.4c-2.7,0-5.3,0-8,0c0.4-0.4,0.8-0.2,1.3-0.2
		c5.7,0.1,11.4-0.8,17.2-0.5c0.5,0,1.1-0.1,1-0.6c0-0.5-0.6-0.6-1.1-0.6C587.2,50.6,584.5,50.6,581.7,50.6z"/>
	<path id="XMLID_376_" class="st22" d="M572.8,61.9c-6.2,0-12.4,0-18.6,0c-1,0-1.3-0.2-1.3-1.3c0.1-1.8,0.2-2.1,1.3-2.1
		c5.7,0.1,11.3,0,17,0.1c6.7,0.1,13.4,0,20.1-0.1c1.1,0,1.4,0.4,1.3,1.4c-0.1,2.3,0.2,2-2.1,2C584.7,61.9,578.8,61.9,572.8,61.9
		C572.8,61.9,572.8,61.9,572.8,61.9z"/>
	<path id="XMLID_375_" class="st13" d="M579.6,52.5c4.3,0,8.6,0,12.9,0c0.5,0.7,0.3,1.5,0.2,2.2c0,0.8-0.7,0.6-1.2,0.6
		c-4.3-0.3-8.5-0.1-12.8-0.1c-7.5,0-15,0-22.4,0c-0.7,0-1.4,0.1-2,0.2c-0.7,0.1-1-0.2-1.2-1c-0.2-0.9,0.1-1.2,0.9-1.2
		c1.7,0,3.4-0.1,5.1-0.2c6.4-0.4,12.8-0.3,19.2-0.3C578.7,52.7,579.2,52.8,579.6,52.5z"/>
	<path id="XMLID_374_" class="st33" d="M555.3,191.7c-0.2,0-0.5,0-0.7,0c0-0.3,0-0.6-0.1-0.8c-0.1-0.4-0.4-0.9,0.2-1.1
		c0.3-0.1,0.8-0.2,1,0.3c0.2,0.4,0.5,0.9-0.2,1.2C555.5,191.4,555.4,191.6,555.3,191.7z"/>
	<path id="XMLID_373_" class="st22" d="M565.8,183.3c-3.4,0-6.9,0.1-10.3-0.1c-2.4-0.1-2.4-0.1-2.4-2.5c0-2.4,0-2.4,2.5-2.4
		c4.6,0,9.1,0,13.7,0c0.3,0,0.8-0.2,0.9,0.2c0.1,0.3-0.3,0.5-0.5,0.7C568.4,180.6,567.1,181.9,565.8,183.3
		C565.8,183.3,565.8,183.3,565.8,183.3z"/>
	<path id="XMLID_372_" class="st34" d="M459.3,203.7c0,0.1,0,0.1,0,0.2c-8.3,0-16.7,0-25,0c-0.8,0-1.6,0.3-2.3,0
		c-2.2,0.1-4.5,0.3-6.7,0c-3,0-6.1,0-9.1,0c-1.8,0.4-3.7,0.1-5.6,0.1c-7.5,0-15,0.3-22.6,0.4c-2,0-4-0.1-5.9,0.2c-9,0-17.9,0-26.9,0
		c-0.2-0.2-0.5-0.1-0.8-0.1c-5.1,0.1-10.1-0.2-15.2-0.1c-7.1,0.1-14.1-0.2-21.2-0.1c-14.9,0.1-29.7-0.1-44.6,0
		c-15.7,0-31.5,0-47.2,0c-2.6,0-5.2,0.2-7.7-0.3c-0.5,0-1,0-1.4,0c-0.1,0-0.1-0.1-0.1-0.1c0-0.1,0.1-0.1,0.1-0.1
		c6.2,0,12.3,0,18.5,0c24.4,0,48.9,0,73.3,0c4.9,0,9.7-0.1,14.6,0c10.4,0.2,20.7,0,31.1,0.3c8.2,0.2,16.5,0.2,24.7,0.1
		c4.9-0.1,9.8-0.1,14.7-0.2c20.7-0.5,41.3-0.1,62-0.2C457,203.7,458.1,203.7,459.3,203.7z"/>
	<path id="XMLID_371_" class="st35" d="M218.3,204c18.3,0,36.6,0,55,0c2.5,0.3,5.1,0.1,7.6,0.1c6.5,0,13-0.1,19.5,0
		c4.5,0.1,8.9,0.1,13.4,0.2c3.5,0,7-0.1,10.4,0c4.2,0.1,8.5,0.1,12.7,0.1c0.3,0,0.8-0.2,0.8,0.3c-37.6,0-75.2,0-112.8,0
		c-1.3-0.5-2.7-0.1-4-0.2C220.1,204.4,219.2,204.6,218.3,204z"/>
	<path id="XMLID_370_" class="st35" d="M111,203.9c0.4-0.3,0.9-0.2,1.4-0.2c2.4,0,4.8,0,7.2,0c7.8-0.1,15.5-0.3,23.3-0.1
		c11.7,0.2,23.4,0,35.1,0.1c0.1,0.1,0.1,0.1,0.1,0.2c0,0.1-0.1,0.1-0.1,0.1c-20.6,0-41.3,0-61.9,0C114.4,204,112.7,204,111,203.9z"
		/>
	<path id="XMLID_369_" class="st36" d="M178,204c0-0.1,0-0.2,0-0.2c13,0,25.9,0,38.9,0c0,0.1,0,0.1,0,0.2C203.9,204,191,204,178,204
		z"/>
	<path id="XMLID_368_" class="st4" d="M581.4,12.9c-0.7,0-1.4,0-2.1,0c0,0,0-0.1,0-0.1c0.7,0,1.4,0,2.1,0
		C581.4,12.8,581.4,12.8,581.4,12.9z"/>
	<path id="XMLID_367_" class="st36" d="M337.9,204.7c-0.4-0.4-0.9-0.2-1.4-0.2c-9.9,0-19.8,0.1-29.8,0c-7-0.1-14-0.2-20.9-0.2
		c-3.7,0-7.5,0-11.2,0c-0.4,0-0.9,0.2-1.2-0.2c12.2,0,24.4-0.1,36.6,0c2.1,0,4.3,0,6.4,0c9.3-0.1,18.7,0.2,28,0.3
		c3.3,0,6.6,0.1,9.9,0.2c0.3,0,0.6-0.1,0.9,0.2C349.4,204.7,343.6,204.7,337.9,204.7z"/>
	<path id="XMLID_366_" class="st32" d="M382,204.7c0.2-0.2,0.4-0.3,0.6-0.2c2.6,0.2,5.2-0.2,7.7-0.3c8.6-0.2,17.1-0.3,25.7-0.2
		c-1,0.7-2.1,0.5-3.1,0.4c-2.4-0.2-4.9,0.1-7.3,0.1c-2.1,0-4.2,0-6.2,0c-0.4,0-0.8-0.1-1.1,0.2C392.9,204.7,387.5,204.7,382,204.7z"
		/>
	<path id="XMLID_365_" class="st32" d="M425.2,204c2.2,0,4.5,0,6.7,0c-1.3,0.6-2.8,0.1-4.1,0.3C426.9,204.4,426,204.6,425.2,204z"/>
</g>
</svg>
